G04 #@! TF.GenerationSoftware,KiCad,Pcbnew,(5.0.0-3-g5ebb6b6)*
G04 #@! TF.CreationDate,2018-08-10T20:06:04-07:00*
G04 #@! TF.ProjectId,juma-adj-cx,6A756D612D61646A2D63782E6B696361,rev?*
G04 #@! TF.SameCoordinates,Original*
G04 #@! TF.FileFunction,Legend,Bot*
G04 #@! TF.FilePolarity,Positive*
%FSLAX46Y46*%
G04 Gerber Fmt 4.6, Leading zero omitted, Abs format (unit mm)*
G04 Created by KiCad (PCBNEW (5.0.0-3-g5ebb6b6)) date Friday, August 10, 2018 at 08:06:04 PM*
%MOMM*%
%LPD*%
G01*
G04 APERTURE LIST*
%ADD10C,0.140000*%
G04 APERTURE END LIST*
D10*
X134480428Y-92172380D02*
X134289952Y-92172380D01*
X134194714Y-92220000D01*
X134099476Y-92315238D01*
X134051857Y-92505714D01*
X134051857Y-92839047D01*
X134099476Y-93029523D01*
X134194714Y-93124761D01*
X134289952Y-93172380D01*
X134480428Y-93172380D01*
X134575666Y-93124761D01*
X134670904Y-93029523D01*
X134718523Y-92839047D01*
X134718523Y-92505714D01*
X134670904Y-92315238D01*
X134575666Y-92220000D01*
X134480428Y-92172380D01*
X133670904Y-93124761D02*
X133575666Y-93172380D01*
X133385190Y-93172380D01*
X133289952Y-93124761D01*
X133242333Y-93029523D01*
X133242333Y-92981904D01*
X133289952Y-92886666D01*
X133385190Y-92839047D01*
X133528047Y-92839047D01*
X133623285Y-92791428D01*
X133670904Y-92696190D01*
X133670904Y-92648571D01*
X133623285Y-92553333D01*
X133528047Y-92505714D01*
X133385190Y-92505714D01*
X133289952Y-92553333D01*
X132432809Y-93124761D02*
X132528047Y-93172380D01*
X132718523Y-93172380D01*
X132813761Y-93124761D01*
X132861380Y-93029523D01*
X132861380Y-92648571D01*
X132813761Y-92553333D01*
X132718523Y-92505714D01*
X132528047Y-92505714D01*
X132432809Y-92553333D01*
X132385190Y-92648571D01*
X132385190Y-92743809D01*
X132861380Y-92839047D01*
X131242333Y-92886666D02*
X130766142Y-92886666D01*
X131337571Y-93172380D02*
X131004238Y-92172380D01*
X130670904Y-93172380D01*
X129909000Y-92505714D02*
X129909000Y-93172380D01*
X130337571Y-92505714D02*
X130337571Y-93029523D01*
X130289952Y-93124761D01*
X130194714Y-93172380D01*
X130051857Y-93172380D01*
X129956619Y-93124761D01*
X129909000Y-93077142D01*
X129004238Y-93172380D02*
X129004238Y-92172380D01*
X129004238Y-93124761D02*
X129099476Y-93172380D01*
X129289952Y-93172380D01*
X129385190Y-93124761D01*
X129432809Y-93077142D01*
X129480428Y-92981904D01*
X129480428Y-92696190D01*
X129432809Y-92600952D01*
X129385190Y-92553333D01*
X129289952Y-92505714D01*
X129099476Y-92505714D01*
X129004238Y-92553333D01*
X128528047Y-93172380D02*
X128528047Y-92505714D01*
X128528047Y-92172380D02*
X128575666Y-92220000D01*
X128528047Y-92267619D01*
X128480428Y-92220000D01*
X128528047Y-92172380D01*
X128528047Y-92267619D01*
X127909000Y-93172380D02*
X128004238Y-93124761D01*
X128051857Y-93077142D01*
X128099476Y-92981904D01*
X128099476Y-92696190D01*
X128051857Y-92600952D01*
X128004238Y-92553333D01*
X127909000Y-92505714D01*
X127766142Y-92505714D01*
X127670904Y-92553333D01*
X127623285Y-92600952D01*
X127575666Y-92696190D01*
X127575666Y-92981904D01*
X127623285Y-93077142D01*
X127670904Y-93124761D01*
X127766142Y-93172380D01*
X127909000Y-93172380D01*
X125909000Y-93172380D02*
X126385190Y-93172380D01*
X126385190Y-92172380D01*
X125147095Y-93172380D02*
X125147095Y-92648571D01*
X125194714Y-92553333D01*
X125289952Y-92505714D01*
X125480428Y-92505714D01*
X125575666Y-92553333D01*
X125147095Y-93124761D02*
X125242333Y-93172380D01*
X125480428Y-93172380D01*
X125575666Y-93124761D01*
X125623285Y-93029523D01*
X125623285Y-92934285D01*
X125575666Y-92839047D01*
X125480428Y-92791428D01*
X125242333Y-92791428D01*
X125147095Y-92743809D01*
X124670904Y-93172380D02*
X124670904Y-92172380D01*
X124670904Y-92553333D02*
X124575666Y-92505714D01*
X124385190Y-92505714D01*
X124289952Y-92553333D01*
X124242333Y-92600952D01*
X124194714Y-92696190D01*
X124194714Y-92981904D01*
X124242333Y-93077142D01*
X124289952Y-93124761D01*
X124385190Y-93172380D01*
X124575666Y-93172380D01*
X124670904Y-93124761D01*
X123813761Y-93124761D02*
X123718523Y-93172380D01*
X123528047Y-93172380D01*
X123432809Y-93124761D01*
X123385190Y-93029523D01*
X123385190Y-92981904D01*
X123432809Y-92886666D01*
X123528047Y-92839047D01*
X123670904Y-92839047D01*
X123766142Y-92791428D01*
X123813761Y-92696190D01*
X123813761Y-92648571D01*
X123766142Y-92553333D01*
X123670904Y-92505714D01*
X123528047Y-92505714D01*
X123432809Y-92553333D01*
X134718523Y-94526666D02*
X134242333Y-94526666D01*
X134813761Y-94812380D02*
X134480428Y-93812380D01*
X134147095Y-94812380D01*
X133385190Y-94812380D02*
X133385190Y-93812380D01*
X133385190Y-94764761D02*
X133480428Y-94812380D01*
X133670904Y-94812380D01*
X133766142Y-94764761D01*
X133813761Y-94717142D01*
X133861380Y-94621904D01*
X133861380Y-94336190D01*
X133813761Y-94240952D01*
X133766142Y-94193333D01*
X133670904Y-94145714D01*
X133480428Y-94145714D01*
X133385190Y-94193333D01*
X132909000Y-94145714D02*
X132909000Y-95002857D01*
X132956619Y-95098095D01*
X133051857Y-95145714D01*
X133099476Y-95145714D01*
X132909000Y-93812380D02*
X132956619Y-93860000D01*
X132909000Y-93907619D01*
X132861380Y-93860000D01*
X132909000Y-93812380D01*
X132909000Y-93907619D01*
X132004238Y-94145714D02*
X132004238Y-94812380D01*
X132432809Y-94145714D02*
X132432809Y-94669523D01*
X132385190Y-94764761D01*
X132289952Y-94812380D01*
X132147095Y-94812380D01*
X132051857Y-94764761D01*
X132004238Y-94717142D01*
X131575666Y-94764761D02*
X131480428Y-94812380D01*
X131289952Y-94812380D01*
X131194714Y-94764761D01*
X131147095Y-94669523D01*
X131147095Y-94621904D01*
X131194714Y-94526666D01*
X131289952Y-94479047D01*
X131432809Y-94479047D01*
X131528047Y-94431428D01*
X131575666Y-94336190D01*
X131575666Y-94288571D01*
X131528047Y-94193333D01*
X131432809Y-94145714D01*
X131289952Y-94145714D01*
X131194714Y-94193333D01*
X130861380Y-94145714D02*
X130480428Y-94145714D01*
X130718523Y-93812380D02*
X130718523Y-94669523D01*
X130670904Y-94764761D01*
X130575666Y-94812380D01*
X130480428Y-94812380D01*
X129718523Y-94812380D02*
X129718523Y-94288571D01*
X129766142Y-94193333D01*
X129861380Y-94145714D01*
X130051857Y-94145714D01*
X130147095Y-94193333D01*
X129718523Y-94764761D02*
X129813761Y-94812380D01*
X130051857Y-94812380D01*
X130147095Y-94764761D01*
X130194714Y-94669523D01*
X130194714Y-94574285D01*
X130147095Y-94479047D01*
X130051857Y-94431428D01*
X129813761Y-94431428D01*
X129718523Y-94383809D01*
X129242333Y-94812380D02*
X129242333Y-93812380D01*
X129242333Y-94193333D02*
X129147095Y-94145714D01*
X128956619Y-94145714D01*
X128861380Y-94193333D01*
X128813761Y-94240952D01*
X128766142Y-94336190D01*
X128766142Y-94621904D01*
X128813761Y-94717142D01*
X128861380Y-94764761D01*
X128956619Y-94812380D01*
X129147095Y-94812380D01*
X129242333Y-94764761D01*
X128194714Y-94812380D02*
X128289952Y-94764761D01*
X128337571Y-94669523D01*
X128337571Y-93812380D01*
X127432809Y-94764761D02*
X127528047Y-94812380D01*
X127718523Y-94812380D01*
X127813761Y-94764761D01*
X127861380Y-94669523D01*
X127861380Y-94288571D01*
X127813761Y-94193333D01*
X127718523Y-94145714D01*
X127528047Y-94145714D01*
X127432809Y-94193333D01*
X127385190Y-94288571D01*
X127385190Y-94383809D01*
X127861380Y-94479047D01*
X125861380Y-94288571D02*
X125718523Y-94336190D01*
X125670904Y-94383809D01*
X125623285Y-94479047D01*
X125623285Y-94621904D01*
X125670904Y-94717142D01*
X125718523Y-94764761D01*
X125813761Y-94812380D01*
X126194714Y-94812380D01*
X126194714Y-93812380D01*
X125861380Y-93812380D01*
X125766142Y-93860000D01*
X125718523Y-93907619D01*
X125670904Y-94002857D01*
X125670904Y-94098095D01*
X125718523Y-94193333D01*
X125766142Y-94240952D01*
X125861380Y-94288571D01*
X126194714Y-94288571D01*
X124909000Y-93812380D02*
X124909000Y-94526666D01*
X124956619Y-94669523D01*
X125051857Y-94764761D01*
X125194714Y-94812380D01*
X125289952Y-94812380D01*
X124575666Y-93812380D02*
X124004238Y-93812380D01*
X124289952Y-94812380D02*
X124289952Y-93812380D01*
X122337571Y-94717142D02*
X122385190Y-94764761D01*
X122528047Y-94812380D01*
X122623285Y-94812380D01*
X122766142Y-94764761D01*
X122861380Y-94669523D01*
X122909000Y-94574285D01*
X122956619Y-94383809D01*
X122956619Y-94240952D01*
X122909000Y-94050476D01*
X122861380Y-93955238D01*
X122766142Y-93860000D01*
X122623285Y-93812380D01*
X122528047Y-93812380D01*
X122385190Y-93860000D01*
X122337571Y-93907619D01*
X121480428Y-94812380D02*
X121480428Y-94288571D01*
X121528047Y-94193333D01*
X121623285Y-94145714D01*
X121813761Y-94145714D01*
X121909000Y-94193333D01*
X121480428Y-94764761D02*
X121575666Y-94812380D01*
X121813761Y-94812380D01*
X121909000Y-94764761D01*
X121956619Y-94669523D01*
X121956619Y-94574285D01*
X121909000Y-94479047D01*
X121813761Y-94431428D01*
X121575666Y-94431428D01*
X121480428Y-94383809D01*
X121004238Y-94145714D02*
X121004238Y-95145714D01*
X121004238Y-94193333D02*
X120909000Y-94145714D01*
X120718523Y-94145714D01*
X120623285Y-94193333D01*
X120575666Y-94240952D01*
X120528047Y-94336190D01*
X120528047Y-94621904D01*
X120575666Y-94717142D01*
X120623285Y-94764761D01*
X120718523Y-94812380D01*
X120909000Y-94812380D01*
X121004238Y-94764761D01*
X119670904Y-94812380D02*
X119670904Y-94288571D01*
X119718523Y-94193333D01*
X119813761Y-94145714D01*
X120004238Y-94145714D01*
X120099476Y-94193333D01*
X119670904Y-94764761D02*
X119766142Y-94812380D01*
X120004238Y-94812380D01*
X120099476Y-94764761D01*
X120147095Y-94669523D01*
X120147095Y-94574285D01*
X120099476Y-94479047D01*
X120004238Y-94431428D01*
X119766142Y-94431428D01*
X119670904Y-94383809D01*
X118766142Y-94764761D02*
X118861380Y-94812380D01*
X119051857Y-94812380D01*
X119147095Y-94764761D01*
X119194714Y-94717142D01*
X119242333Y-94621904D01*
X119242333Y-94336190D01*
X119194714Y-94240952D01*
X119147095Y-94193333D01*
X119051857Y-94145714D01*
X118861380Y-94145714D01*
X118766142Y-94193333D01*
X118337571Y-94812380D02*
X118337571Y-94145714D01*
X118337571Y-93812380D02*
X118385190Y-93860000D01*
X118337571Y-93907619D01*
X118289952Y-93860000D01*
X118337571Y-93812380D01*
X118337571Y-93907619D01*
X118004238Y-94145714D02*
X117623285Y-94145714D01*
X117861380Y-93812380D02*
X117861380Y-94669523D01*
X117813761Y-94764761D01*
X117718523Y-94812380D01*
X117623285Y-94812380D01*
X116861380Y-94812380D02*
X116861380Y-94288571D01*
X116909000Y-94193333D01*
X117004238Y-94145714D01*
X117194714Y-94145714D01*
X117289952Y-94193333D01*
X116861380Y-94764761D02*
X116956619Y-94812380D01*
X117194714Y-94812380D01*
X117289952Y-94764761D01*
X117337571Y-94669523D01*
X117337571Y-94574285D01*
X117289952Y-94479047D01*
X117194714Y-94431428D01*
X116956619Y-94431428D01*
X116861380Y-94383809D01*
X116385190Y-94145714D02*
X116385190Y-94812380D01*
X116385190Y-94240952D02*
X116337571Y-94193333D01*
X116242333Y-94145714D01*
X116099476Y-94145714D01*
X116004238Y-94193333D01*
X115956619Y-94288571D01*
X115956619Y-94812380D01*
X115051857Y-94764761D02*
X115147095Y-94812380D01*
X115337571Y-94812380D01*
X115432809Y-94764761D01*
X115480428Y-94717142D01*
X115528047Y-94621904D01*
X115528047Y-94336190D01*
X115480428Y-94240952D01*
X115432809Y-94193333D01*
X115337571Y-94145714D01*
X115147095Y-94145714D01*
X115051857Y-94193333D01*
X114242333Y-94764761D02*
X114337571Y-94812380D01*
X114528047Y-94812380D01*
X114623285Y-94764761D01*
X114670904Y-94669523D01*
X114670904Y-94288571D01*
X114623285Y-94193333D01*
X114528047Y-94145714D01*
X114337571Y-94145714D01*
X114242333Y-94193333D01*
X114194714Y-94288571D01*
X114194714Y-94383809D01*
X114670904Y-94479047D01*
X113004238Y-94812380D02*
X113004238Y-93812380D01*
X112670904Y-94526666D01*
X112337571Y-93812380D01*
X112337571Y-94812380D01*
X111432809Y-94145714D02*
X111432809Y-94812380D01*
X111861380Y-94145714D02*
X111861380Y-94669523D01*
X111813761Y-94764761D01*
X111718523Y-94812380D01*
X111575666Y-94812380D01*
X111480428Y-94764761D01*
X111432809Y-94717142D01*
X110813761Y-94812380D02*
X110909000Y-94764761D01*
X110956619Y-94669523D01*
X110956619Y-93812380D01*
X110575666Y-94145714D02*
X110194714Y-94145714D01*
X110432809Y-93812380D02*
X110432809Y-94669523D01*
X110385190Y-94764761D01*
X110289952Y-94812380D01*
X110194714Y-94812380D01*
X109861380Y-94812380D02*
X109861380Y-94145714D01*
X109861380Y-93812380D02*
X109909000Y-93860000D01*
X109861380Y-93907619D01*
X109813761Y-93860000D01*
X109861380Y-93812380D01*
X109861380Y-93907619D01*
X109385190Y-94145714D02*
X109385190Y-95145714D01*
X109385190Y-94193333D02*
X109289952Y-94145714D01*
X109099476Y-94145714D01*
X109004238Y-94193333D01*
X108956619Y-94240952D01*
X108909000Y-94336190D01*
X108909000Y-94621904D01*
X108956619Y-94717142D01*
X109004238Y-94764761D01*
X109099476Y-94812380D01*
X109289952Y-94812380D01*
X109385190Y-94764761D01*
X108337571Y-94812380D02*
X108432809Y-94764761D01*
X108480428Y-94669523D01*
X108480428Y-93812380D01*
X107956619Y-94812380D02*
X107956619Y-94145714D01*
X107956619Y-93812380D02*
X108004238Y-93860000D01*
X107956619Y-93907619D01*
X107909000Y-93860000D01*
X107956619Y-93812380D01*
X107956619Y-93907619D01*
X107099476Y-94764761D02*
X107194714Y-94812380D01*
X107385190Y-94812380D01*
X107480428Y-94764761D01*
X107528047Y-94669523D01*
X107528047Y-94288571D01*
X107480428Y-94193333D01*
X107385190Y-94145714D01*
X107194714Y-94145714D01*
X107099476Y-94193333D01*
X107051857Y-94288571D01*
X107051857Y-94383809D01*
X107528047Y-94479047D01*
X106623285Y-94812380D02*
X106623285Y-94145714D01*
X106623285Y-94336190D02*
X106575666Y-94240952D01*
X106528047Y-94193333D01*
X106432809Y-94145714D01*
X106337571Y-94145714D01*
X134242333Y-95785714D02*
X134242333Y-96595238D01*
X134289952Y-96690476D01*
X134337571Y-96738095D01*
X134432809Y-96785714D01*
X134575666Y-96785714D01*
X134670904Y-96738095D01*
X134242333Y-96404761D02*
X134337571Y-96452380D01*
X134528047Y-96452380D01*
X134623285Y-96404761D01*
X134670904Y-96357142D01*
X134718523Y-96261904D01*
X134718523Y-95976190D01*
X134670904Y-95880952D01*
X134623285Y-95833333D01*
X134528047Y-95785714D01*
X134337571Y-95785714D01*
X134242333Y-95833333D01*
X133766142Y-96452380D02*
X133766142Y-95785714D01*
X133766142Y-95452380D02*
X133813761Y-95500000D01*
X133766142Y-95547619D01*
X133718523Y-95500000D01*
X133766142Y-95452380D01*
X133766142Y-95547619D01*
X133432809Y-95785714D02*
X133051857Y-95785714D01*
X133289952Y-95452380D02*
X133289952Y-96309523D01*
X133242333Y-96404761D01*
X133147095Y-96452380D01*
X133051857Y-96452380D01*
X132718523Y-96452380D02*
X132718523Y-95452380D01*
X132289952Y-96452380D02*
X132289952Y-95928571D01*
X132337571Y-95833333D01*
X132432809Y-95785714D01*
X132575666Y-95785714D01*
X132670904Y-95833333D01*
X132718523Y-95880952D01*
X131385190Y-95785714D02*
X131385190Y-96452380D01*
X131813761Y-95785714D02*
X131813761Y-96309523D01*
X131766142Y-96404761D01*
X131670904Y-96452380D01*
X131528047Y-96452380D01*
X131432809Y-96404761D01*
X131385190Y-96357142D01*
X130909000Y-96452380D02*
X130909000Y-95452380D01*
X130909000Y-95833333D02*
X130813761Y-95785714D01*
X130623285Y-95785714D01*
X130528047Y-95833333D01*
X130480428Y-95880952D01*
X130432809Y-95976190D01*
X130432809Y-96261904D01*
X130480428Y-96357142D01*
X130528047Y-96404761D01*
X130623285Y-96452380D01*
X130813761Y-96452380D01*
X130909000Y-96404761D01*
X130004238Y-96357142D02*
X129956619Y-96404761D01*
X130004238Y-96452380D01*
X130051857Y-96404761D01*
X130004238Y-96357142D01*
X130004238Y-96452380D01*
X129099476Y-96404761D02*
X129194714Y-96452380D01*
X129385190Y-96452380D01*
X129480428Y-96404761D01*
X129528047Y-96357142D01*
X129575666Y-96261904D01*
X129575666Y-95976190D01*
X129528047Y-95880952D01*
X129480428Y-95833333D01*
X129385190Y-95785714D01*
X129194714Y-95785714D01*
X129099476Y-95833333D01*
X128528047Y-96452380D02*
X128623285Y-96404761D01*
X128670904Y-96357142D01*
X128718523Y-96261904D01*
X128718523Y-95976190D01*
X128670904Y-95880952D01*
X128623285Y-95833333D01*
X128528047Y-95785714D01*
X128385190Y-95785714D01*
X128289952Y-95833333D01*
X128242333Y-95880952D01*
X128194714Y-95976190D01*
X128194714Y-96261904D01*
X128242333Y-96357142D01*
X128289952Y-96404761D01*
X128385190Y-96452380D01*
X128528047Y-96452380D01*
X127766142Y-96452380D02*
X127766142Y-95785714D01*
X127766142Y-95880952D02*
X127718523Y-95833333D01*
X127623285Y-95785714D01*
X127480428Y-95785714D01*
X127385190Y-95833333D01*
X127337571Y-95928571D01*
X127337571Y-96452380D01*
X127337571Y-95928571D02*
X127289952Y-95833333D01*
X127194714Y-95785714D01*
X127051857Y-95785714D01*
X126956619Y-95833333D01*
X126909000Y-95928571D01*
X126909000Y-96452380D01*
X125718523Y-95404761D02*
X126575666Y-96690476D01*
X125242333Y-96452380D02*
X125337571Y-96404761D01*
X125385190Y-96357142D01*
X125432809Y-96261904D01*
X125432809Y-95976190D01*
X125385190Y-95880952D01*
X125337571Y-95833333D01*
X125242333Y-95785714D01*
X125099476Y-95785714D01*
X125004238Y-95833333D01*
X124956619Y-95880952D01*
X124909000Y-95976190D01*
X124909000Y-96261904D01*
X124956619Y-96357142D01*
X125004238Y-96404761D01*
X125099476Y-96452380D01*
X125242333Y-96452380D01*
X124528047Y-96404761D02*
X124432809Y-96452380D01*
X124242333Y-96452380D01*
X124147095Y-96404761D01*
X124099476Y-96309523D01*
X124099476Y-96261904D01*
X124147095Y-96166666D01*
X124242333Y-96119047D01*
X124385190Y-96119047D01*
X124480428Y-96071428D01*
X124528047Y-95976190D01*
X124528047Y-95928571D01*
X124480428Y-95833333D01*
X124385190Y-95785714D01*
X124242333Y-95785714D01*
X124147095Y-95833333D01*
X123289952Y-96404761D02*
X123385190Y-96452380D01*
X123575666Y-96452380D01*
X123670904Y-96404761D01*
X123718523Y-96309523D01*
X123718523Y-95928571D01*
X123670904Y-95833333D01*
X123575666Y-95785714D01*
X123385190Y-95785714D01*
X123289952Y-95833333D01*
X123242333Y-95928571D01*
X123242333Y-96023809D01*
X123718523Y-96119047D01*
X122385190Y-96452380D02*
X122385190Y-95928571D01*
X122432809Y-95833333D01*
X122528047Y-95785714D01*
X122718523Y-95785714D01*
X122813761Y-95833333D01*
X122385190Y-96404761D02*
X122480428Y-96452380D01*
X122718523Y-96452380D01*
X122813761Y-96404761D01*
X122861380Y-96309523D01*
X122861380Y-96214285D01*
X122813761Y-96119047D01*
X122718523Y-96071428D01*
X122480428Y-96071428D01*
X122385190Y-96023809D01*
X121480428Y-95785714D02*
X121480428Y-96452380D01*
X121909000Y-95785714D02*
X121909000Y-96309523D01*
X121861380Y-96404761D01*
X121766142Y-96452380D01*
X121623285Y-96452380D01*
X121528047Y-96404761D01*
X121480428Y-96357142D01*
X120575666Y-96452380D02*
X120575666Y-95452380D01*
X120575666Y-96404761D02*
X120670904Y-96452380D01*
X120861380Y-96452380D01*
X120956619Y-96404761D01*
X121004238Y-96357142D01*
X121051857Y-96261904D01*
X121051857Y-95976190D01*
X121004238Y-95880952D01*
X120956619Y-95833333D01*
X120861380Y-95785714D01*
X120670904Y-95785714D01*
X120575666Y-95833333D01*
X120099476Y-96452380D02*
X120099476Y-95785714D01*
X120099476Y-95452380D02*
X120147095Y-95500000D01*
X120099476Y-95547619D01*
X120051857Y-95500000D01*
X120099476Y-95452380D01*
X120099476Y-95547619D01*
X119480428Y-96452380D02*
X119575666Y-96404761D01*
X119623285Y-96357142D01*
X119670904Y-96261904D01*
X119670904Y-95976190D01*
X119623285Y-95880952D01*
X119575666Y-95833333D01*
X119480428Y-95785714D01*
X119337571Y-95785714D01*
X119242333Y-95833333D01*
X119194714Y-95880952D01*
X119147095Y-95976190D01*
X119147095Y-96261904D01*
X119194714Y-96357142D01*
X119242333Y-96404761D01*
X119337571Y-96452380D01*
X119480428Y-96452380D01*
X118575666Y-96452380D02*
X118670904Y-96404761D01*
X118718523Y-96309523D01*
X118718523Y-95452380D01*
X117766142Y-96452380D02*
X117766142Y-95928571D01*
X117813761Y-95833333D01*
X117909000Y-95785714D01*
X118099476Y-95785714D01*
X118194714Y-95833333D01*
X117766142Y-96404761D02*
X117861380Y-96452380D01*
X118099476Y-96452380D01*
X118194714Y-96404761D01*
X118242333Y-96309523D01*
X118242333Y-96214285D01*
X118194714Y-96119047D01*
X118099476Y-96071428D01*
X117861380Y-96071428D01*
X117766142Y-96023809D01*
X117289952Y-96452380D02*
X117289952Y-95452380D01*
X117289952Y-95833333D02*
X117194714Y-95785714D01*
X117004238Y-95785714D01*
X116909000Y-95833333D01*
X116861380Y-95880952D01*
X116813761Y-95976190D01*
X116813761Y-96261904D01*
X116861380Y-96357142D01*
X116909000Y-96404761D01*
X117004238Y-96452380D01*
X117194714Y-96452380D01*
X117289952Y-96404761D01*
X116432809Y-96404761D02*
X116337571Y-96452380D01*
X116147095Y-96452380D01*
X116051857Y-96404761D01*
X116004238Y-96309523D01*
X116004238Y-96261904D01*
X116051857Y-96166666D01*
X116147095Y-96119047D01*
X116289952Y-96119047D01*
X116385190Y-96071428D01*
X116432809Y-95976190D01*
X116432809Y-95928571D01*
X116385190Y-95833333D01*
X116289952Y-95785714D01*
X116147095Y-95785714D01*
X116051857Y-95833333D01*
X114861380Y-95404761D02*
X115718523Y-96690476D01*
X114099476Y-96452380D02*
X114099476Y-95928571D01*
X114147095Y-95833333D01*
X114242333Y-95785714D01*
X114432809Y-95785714D01*
X114528047Y-95833333D01*
X114099476Y-96404761D02*
X114194714Y-96452380D01*
X114432809Y-96452380D01*
X114528047Y-96404761D01*
X114575666Y-96309523D01*
X114575666Y-96214285D01*
X114528047Y-96119047D01*
X114432809Y-96071428D01*
X114194714Y-96071428D01*
X114099476Y-96023809D01*
X113194714Y-96452380D02*
X113194714Y-95452380D01*
X113194714Y-96404761D02*
X113289952Y-96452380D01*
X113480428Y-96452380D01*
X113575666Y-96404761D01*
X113623285Y-96357142D01*
X113670904Y-96261904D01*
X113670904Y-95976190D01*
X113623285Y-95880952D01*
X113575666Y-95833333D01*
X113480428Y-95785714D01*
X113289952Y-95785714D01*
X113194714Y-95833333D01*
X112718523Y-95785714D02*
X112718523Y-96642857D01*
X112766142Y-96738095D01*
X112861380Y-96785714D01*
X112909000Y-96785714D01*
X112718523Y-95452380D02*
X112766142Y-95500000D01*
X112718523Y-95547619D01*
X112670904Y-95500000D01*
X112718523Y-95452380D01*
X112718523Y-95547619D01*
X111813761Y-95785714D02*
X111813761Y-96452380D01*
X112242333Y-95785714D02*
X112242333Y-96309523D01*
X112194714Y-96404761D01*
X112099476Y-96452380D01*
X111956619Y-96452380D01*
X111861380Y-96404761D01*
X111813761Y-96357142D01*
X111385190Y-96404761D02*
X111289952Y-96452380D01*
X111099476Y-96452380D01*
X111004238Y-96404761D01*
X110956619Y-96309523D01*
X110956619Y-96261904D01*
X111004238Y-96166666D01*
X111099476Y-96119047D01*
X111242333Y-96119047D01*
X111337571Y-96071428D01*
X111385190Y-95976190D01*
X111385190Y-95928571D01*
X111337571Y-95833333D01*
X111242333Y-95785714D01*
X111099476Y-95785714D01*
X111004238Y-95833333D01*
X110670904Y-95785714D02*
X110289952Y-95785714D01*
X110528047Y-95452380D02*
X110528047Y-96309523D01*
X110480428Y-96404761D01*
X110385190Y-96452380D01*
X110289952Y-96452380D01*
X109528047Y-96452380D02*
X109528047Y-95928571D01*
X109575666Y-95833333D01*
X109670904Y-95785714D01*
X109861380Y-95785714D01*
X109956619Y-95833333D01*
X109528047Y-96404761D02*
X109623285Y-96452380D01*
X109861380Y-96452380D01*
X109956619Y-96404761D01*
X110004238Y-96309523D01*
X110004238Y-96214285D01*
X109956619Y-96119047D01*
X109861380Y-96071428D01*
X109623285Y-96071428D01*
X109528047Y-96023809D01*
X109051857Y-96452380D02*
X109051857Y-95452380D01*
X109051857Y-95833333D02*
X108956619Y-95785714D01*
X108766142Y-95785714D01*
X108670904Y-95833333D01*
X108623285Y-95880952D01*
X108575666Y-95976190D01*
X108575666Y-96261904D01*
X108623285Y-96357142D01*
X108670904Y-96404761D01*
X108766142Y-96452380D01*
X108956619Y-96452380D01*
X109051857Y-96404761D01*
X108004238Y-96452380D02*
X108099476Y-96404761D01*
X108147095Y-96309523D01*
X108147095Y-95452380D01*
X107242333Y-96404761D02*
X107337571Y-96452380D01*
X107528047Y-96452380D01*
X107623285Y-96404761D01*
X107670904Y-96309523D01*
X107670904Y-95928571D01*
X107623285Y-95833333D01*
X107528047Y-95785714D01*
X107337571Y-95785714D01*
X107242333Y-95833333D01*
X107194714Y-95928571D01*
X107194714Y-96023809D01*
X107670904Y-96119047D01*
X106766142Y-96071428D02*
X106004238Y-96071428D01*
X105099476Y-96404761D02*
X105194714Y-96452380D01*
X105385190Y-96452380D01*
X105480428Y-96404761D01*
X105528047Y-96357142D01*
X105575666Y-96261904D01*
X105575666Y-95976190D01*
X105528047Y-95880952D01*
X105480428Y-95833333D01*
X105385190Y-95785714D01*
X105194714Y-95785714D01*
X105099476Y-95833333D01*
X104242333Y-96452380D02*
X104242333Y-95928571D01*
X104289952Y-95833333D01*
X104385190Y-95785714D01*
X104575666Y-95785714D01*
X104670904Y-95833333D01*
X104242333Y-96404761D02*
X104337571Y-96452380D01*
X104575666Y-96452380D01*
X104670904Y-96404761D01*
X104718523Y-96309523D01*
X104718523Y-96214285D01*
X104670904Y-96119047D01*
X104575666Y-96071428D01*
X104337571Y-96071428D01*
X104242333Y-96023809D01*
X103766142Y-95785714D02*
X103766142Y-96785714D01*
X103766142Y-95833333D02*
X103670904Y-95785714D01*
X103480428Y-95785714D01*
X103385190Y-95833333D01*
X103337571Y-95880952D01*
X103289952Y-95976190D01*
X103289952Y-96261904D01*
X103337571Y-96357142D01*
X103385190Y-96404761D01*
X103480428Y-96452380D01*
X103670904Y-96452380D01*
X103766142Y-96404761D01*
X102861380Y-96071428D02*
X102099476Y-96071428D01*
X101623285Y-96452380D02*
X101623285Y-95785714D01*
X101623285Y-95880952D02*
X101575666Y-95833333D01*
X101480428Y-95785714D01*
X101337571Y-95785714D01*
X101242333Y-95833333D01*
X101194714Y-95928571D01*
X101194714Y-96452380D01*
X101194714Y-95928571D02*
X101147095Y-95833333D01*
X101051857Y-95785714D01*
X100909000Y-95785714D01*
X100813761Y-95833333D01*
X100766142Y-95928571D01*
X100766142Y-96452380D01*
X100385190Y-96452380D02*
X99861380Y-95785714D01*
X100385190Y-95785714D02*
X99861380Y-96452380D01*
X134813761Y-99065714D02*
X134432809Y-99065714D01*
X134670904Y-98732380D02*
X134670904Y-99589523D01*
X134623285Y-99684761D01*
X134528047Y-99732380D01*
X134432809Y-99732380D01*
X134099476Y-99732380D02*
X134099476Y-98732380D01*
X133670904Y-99732380D02*
X133670904Y-99208571D01*
X133718523Y-99113333D01*
X133813761Y-99065714D01*
X133956619Y-99065714D01*
X134051857Y-99113333D01*
X134099476Y-99160952D01*
X133289952Y-99732380D02*
X132766142Y-99065714D01*
X133289952Y-99065714D02*
X132766142Y-99732380D01*
X132385190Y-99637142D02*
X132337571Y-99684761D01*
X132385190Y-99732380D01*
X132432809Y-99684761D01*
X132385190Y-99637142D01*
X132385190Y-99732380D01*
X132385190Y-99113333D02*
X132337571Y-99160952D01*
X132385190Y-99208571D01*
X132432809Y-99160952D01*
X132385190Y-99113333D01*
X132385190Y-99208571D01*
X131194714Y-99446666D02*
X130718523Y-99446666D01*
X131289952Y-99732380D02*
X130956619Y-98732380D01*
X130623285Y-99732380D01*
X130289952Y-99065714D02*
X130289952Y-99732380D01*
X130289952Y-99160952D02*
X130242333Y-99113333D01*
X130147095Y-99065714D01*
X130004238Y-99065714D01*
X129909000Y-99113333D01*
X129861380Y-99208571D01*
X129861380Y-99732380D01*
X128956619Y-99732380D02*
X128956619Y-98732380D01*
X128956619Y-99684761D02*
X129051857Y-99732380D01*
X129242333Y-99732380D01*
X129337571Y-99684761D01*
X129385190Y-99637142D01*
X129432809Y-99541904D01*
X129432809Y-99256190D01*
X129385190Y-99160952D01*
X129337571Y-99113333D01*
X129242333Y-99065714D01*
X129051857Y-99065714D01*
X128956619Y-99113333D01*
X128480428Y-99732380D02*
X128480428Y-99065714D01*
X128480428Y-99256190D02*
X128432809Y-99160952D01*
X128385190Y-99113333D01*
X128289952Y-99065714D01*
X128194714Y-99065714D01*
X127480428Y-99684761D02*
X127575666Y-99732380D01*
X127766142Y-99732380D01*
X127861380Y-99684761D01*
X127909000Y-99589523D01*
X127909000Y-99208571D01*
X127861380Y-99113333D01*
X127766142Y-99065714D01*
X127575666Y-99065714D01*
X127480428Y-99113333D01*
X127432809Y-99208571D01*
X127432809Y-99303809D01*
X127909000Y-99399047D01*
X127099476Y-99065714D02*
X126909000Y-99732380D01*
X126718523Y-99256190D01*
X126528047Y-99732380D01*
X126337571Y-99065714D01*
X126099476Y-98732380D02*
X125528047Y-98732380D01*
X125813761Y-99732380D02*
X125813761Y-98732380D01*
X125147095Y-99684761D02*
X125147095Y-99732380D01*
X125194714Y-99827619D01*
X125242333Y-99875238D01*
X123956619Y-99732380D02*
X123956619Y-98732380D01*
X123623285Y-99446666D01*
X123289952Y-98732380D01*
X123289952Y-99732380D01*
X122385190Y-99732380D02*
X122385190Y-99208571D01*
X122432809Y-99113333D01*
X122528047Y-99065714D01*
X122718523Y-99065714D01*
X122813761Y-99113333D01*
X122385190Y-99684761D02*
X122480428Y-99732380D01*
X122718523Y-99732380D01*
X122813761Y-99684761D01*
X122861380Y-99589523D01*
X122861380Y-99494285D01*
X122813761Y-99399047D01*
X122718523Y-99351428D01*
X122480428Y-99351428D01*
X122385190Y-99303809D01*
X121909000Y-99732380D02*
X121909000Y-99065714D01*
X121909000Y-99256190D02*
X121861380Y-99160952D01*
X121813761Y-99113333D01*
X121718523Y-99065714D01*
X121623285Y-99065714D01*
X121289952Y-99732380D02*
X121289952Y-98732380D01*
X121194714Y-99351428D02*
X120909000Y-99732380D01*
X120909000Y-99065714D02*
X121289952Y-99446666D01*
X119432809Y-98732380D02*
X119432809Y-99446666D01*
X119480428Y-99589523D01*
X119575666Y-99684761D01*
X119718523Y-99732380D01*
X119813761Y-99732380D01*
X118813761Y-99732380D02*
X118909000Y-99684761D01*
X118956619Y-99637142D01*
X119004238Y-99541904D01*
X119004238Y-99256190D01*
X118956619Y-99160952D01*
X118909000Y-99113333D01*
X118813761Y-99065714D01*
X118670904Y-99065714D01*
X118575666Y-99113333D01*
X118528047Y-99160952D01*
X118480428Y-99256190D01*
X118480428Y-99541904D01*
X118528047Y-99637142D01*
X118575666Y-99684761D01*
X118670904Y-99732380D01*
X118813761Y-99732380D01*
X118051857Y-99732380D02*
X118051857Y-98732380D01*
X117623285Y-99732380D02*
X117623285Y-99208571D01*
X117670904Y-99113333D01*
X117766142Y-99065714D01*
X117909000Y-99065714D01*
X118004238Y-99113333D01*
X118051857Y-99160952D01*
X117147095Y-99065714D02*
X117147095Y-99732380D01*
X117147095Y-99160952D02*
X117099476Y-99113333D01*
X117004238Y-99065714D01*
X116861380Y-99065714D01*
X116766142Y-99113333D01*
X116718523Y-99208571D01*
X116718523Y-99732380D01*
X116289952Y-99684761D02*
X116194714Y-99732380D01*
X116004238Y-99732380D01*
X115909000Y-99684761D01*
X115861380Y-99589523D01*
X115861380Y-99541904D01*
X115909000Y-99446666D01*
X116004238Y-99399047D01*
X116147095Y-99399047D01*
X116242333Y-99351428D01*
X116289952Y-99256190D01*
X116289952Y-99208571D01*
X116242333Y-99113333D01*
X116147095Y-99065714D01*
X116004238Y-99065714D01*
X115909000Y-99113333D01*
X115289952Y-99732380D02*
X115385190Y-99684761D01*
X115432809Y-99637142D01*
X115480428Y-99541904D01*
X115480428Y-99256190D01*
X115432809Y-99160952D01*
X115385190Y-99113333D01*
X115289952Y-99065714D01*
X115147095Y-99065714D01*
X115051857Y-99113333D01*
X115004238Y-99160952D01*
X114956619Y-99256190D01*
X114956619Y-99541904D01*
X115004238Y-99637142D01*
X115051857Y-99684761D01*
X115147095Y-99732380D01*
X115289952Y-99732380D01*
X114528047Y-99065714D02*
X114528047Y-99732380D01*
X114528047Y-99160952D02*
X114480428Y-99113333D01*
X114385190Y-99065714D01*
X114242333Y-99065714D01*
X114147095Y-99113333D01*
X114099476Y-99208571D01*
X114099476Y-99732380D01*
X113575666Y-99684761D02*
X113575666Y-99732380D01*
X113623285Y-99827619D01*
X113670904Y-99875238D01*
X112385190Y-99065714D02*
X112385190Y-100065714D01*
X112385190Y-99113333D02*
X112289952Y-99065714D01*
X112099476Y-99065714D01*
X112004238Y-99113333D01*
X111956619Y-99160952D01*
X111909000Y-99256190D01*
X111909000Y-99541904D01*
X111956619Y-99637142D01*
X112004238Y-99684761D01*
X112099476Y-99732380D01*
X112289952Y-99732380D01*
X112385190Y-99684761D01*
X111480428Y-99732380D02*
X111480428Y-99065714D01*
X111480428Y-99256190D02*
X111432809Y-99160952D01*
X111385190Y-99113333D01*
X111289952Y-99065714D01*
X111194714Y-99065714D01*
X110432809Y-99732380D02*
X110432809Y-99208571D01*
X110480428Y-99113333D01*
X110575666Y-99065714D01*
X110766142Y-99065714D01*
X110861380Y-99113333D01*
X110432809Y-99684761D02*
X110528047Y-99732380D01*
X110766142Y-99732380D01*
X110861380Y-99684761D01*
X110909000Y-99589523D01*
X110909000Y-99494285D01*
X110861380Y-99399047D01*
X110766142Y-99351428D01*
X110528047Y-99351428D01*
X110432809Y-99303809D01*
X110004238Y-99684761D02*
X109909000Y-99732380D01*
X109718523Y-99732380D01*
X109623285Y-99684761D01*
X109575666Y-99589523D01*
X109575666Y-99541904D01*
X109623285Y-99446666D01*
X109718523Y-99399047D01*
X109861380Y-99399047D01*
X109956619Y-99351428D01*
X110004238Y-99256190D01*
X110004238Y-99208571D01*
X109956619Y-99113333D01*
X109861380Y-99065714D01*
X109718523Y-99065714D01*
X109623285Y-99113333D01*
X109147095Y-99732380D02*
X109147095Y-99065714D01*
X109147095Y-98732380D02*
X109194714Y-98780000D01*
X109147095Y-98827619D01*
X109099476Y-98780000D01*
X109147095Y-98732380D01*
X109147095Y-98827619D01*
X108623285Y-99684761D02*
X108623285Y-99732380D01*
X108670904Y-99827619D01*
X108718523Y-99875238D01*
X107528047Y-99732380D02*
X107004238Y-99065714D01*
X107528047Y-99065714D02*
X107004238Y-99732380D01*
X106623285Y-99732380D02*
X106623285Y-99065714D01*
X106623285Y-99256190D02*
X106575666Y-99160952D01*
X106528047Y-99113333D01*
X106432809Y-99065714D01*
X106337571Y-99065714D01*
X106004238Y-99732380D02*
X106004238Y-98732380D01*
X105909000Y-99351428D02*
X105623285Y-99732380D01*
X105623285Y-99065714D02*
X106004238Y-99446666D01*
X105147095Y-99732380D02*
X104956619Y-99732380D01*
X104861380Y-99684761D01*
X104813761Y-99637142D01*
X104718523Y-99494285D01*
X104670904Y-99303809D01*
X104670904Y-98922857D01*
X104718523Y-98827619D01*
X104766142Y-98780000D01*
X104861380Y-98732380D01*
X105051857Y-98732380D01*
X105147095Y-98780000D01*
X105194714Y-98827619D01*
X105242333Y-98922857D01*
X105242333Y-99160952D01*
X105194714Y-99256190D01*
X105147095Y-99303809D01*
X105051857Y-99351428D01*
X104861380Y-99351428D01*
X104766142Y-99303809D01*
X104718523Y-99256190D01*
X104670904Y-99160952D01*
X104337571Y-98732380D02*
X103670904Y-98732380D01*
X104099476Y-99732380D01*
X102766142Y-99732380D02*
X103337571Y-99732380D01*
X103051857Y-99732380D02*
X103051857Y-98732380D01*
X103147095Y-98875238D01*
X103242333Y-98970476D01*
X103337571Y-99018095D01*
M02*
