G04 #@! TF.GenerationSoftware,KiCad,Pcbnew,(5.0.0-3-g5ebb6b6)*
G04 #@! TF.CreationDate,2018-08-10T20:06:04-07:00*
G04 #@! TF.ProjectId,juma-adj-cx,6A756D612D61646A2D63782E6B696361,rev?*
G04 #@! TF.SameCoordinates,Original*
G04 #@! TF.FileFunction,Legend,Top*
G04 #@! TF.FilePolarity,Positive*
%FSLAX46Y46*%
G04 Gerber Fmt 4.6, Leading zero omitted, Abs format (unit mm)*
G04 Created by KiCad (PCBNEW (5.0.0-3-g5ebb6b6)) date Friday, August 10, 2018 at 08:06:04 PM*
%MOMM*%
%LPD*%
G01*
G04 APERTURE LIST*
%ADD10C,0.300000*%
%ADD11C,0.120000*%
%ADD12C,0.150000*%
%ADD13C,0.152400*%
G04 APERTURE END LIST*
D10*
X161000000Y-100578571D02*
X161285714Y-100578571D01*
X161428571Y-100650000D01*
X161571428Y-100792857D01*
X161642857Y-101078571D01*
X161642857Y-101578571D01*
X161571428Y-101864285D01*
X161428571Y-102007142D01*
X161285714Y-102078571D01*
X161000000Y-102078571D01*
X160857142Y-102007142D01*
X160714285Y-101864285D01*
X160642857Y-101578571D01*
X160642857Y-101078571D01*
X160714285Y-100792857D01*
X160857142Y-100650000D01*
X161000000Y-100578571D01*
X162285714Y-100578571D02*
X162285714Y-101792857D01*
X162357142Y-101935714D01*
X162428571Y-102007142D01*
X162571428Y-102078571D01*
X162857142Y-102078571D01*
X163000000Y-102007142D01*
X163071428Y-101935714D01*
X163142857Y-101792857D01*
X163142857Y-100578571D01*
X163642857Y-100578571D02*
X164500000Y-100578571D01*
X164071428Y-102078571D02*
X164071428Y-100578571D01*
X166142857Y-101507142D02*
X167285714Y-101507142D01*
X166714285Y-102078571D02*
X166714285Y-100935714D01*
X83714285Y-102078571D02*
X83714285Y-100578571D01*
X84428571Y-102078571D02*
X84428571Y-100578571D01*
X85285714Y-102078571D01*
X85285714Y-100578571D01*
X87142857Y-101507142D02*
X88285714Y-101507142D01*
X87714285Y-102078571D02*
X87714285Y-100935714D01*
D11*
G04 #@! TO.C,C3*
X149670000Y-111600000D02*
G75*
G03X149670000Y-111600000I-6370000J0D01*
G01*
X136682918Y-107025000D02*
X137932918Y-107025000D01*
X137307918Y-106400000D02*
X137307918Y-107650000D01*
G04 #@! TO.C,C4*
X145607918Y-119700000D02*
X145607918Y-120950000D01*
X144982918Y-120325000D02*
X146232918Y-120325000D01*
X159370000Y-120500000D02*
G75*
G03X159370000Y-120500000I-6370000J0D01*
G01*
G04 #@! TO.C,C2*
X136620000Y-110000000D02*
G75*
G03X136620000Y-110000000I-17620000J0D01*
G01*
X128875000Y-91145998D02*
X128875000Y-94645998D01*
X130625000Y-92895998D02*
X127125000Y-92895998D01*
G04 #@! TO.C,Q2*
X149399932Y-90779000D02*
X152600000Y-90779000D01*
X155400000Y-90779000D02*
X158051000Y-90779000D01*
X160850000Y-90779000D02*
X163500000Y-90779000D01*
X166300000Y-90779000D02*
X168600095Y-90779000D01*
X149399990Y-96020000D02*
X168600010Y-96020000D01*
X149399938Y-93020000D02*
X152600000Y-93020000D01*
X155400000Y-93020000D02*
X158051000Y-93020000D01*
X160850000Y-93020000D02*
X163500000Y-93020000D01*
X166300000Y-93020000D02*
X168600086Y-93020000D01*
X157800000Y-90779000D02*
X157800000Y-93020000D01*
X161100000Y-90779000D02*
X161100000Y-93020000D01*
D12*
X149400000Y-90800000D02*
X149400000Y-96000000D01*
X149500000Y-90800000D02*
X149500000Y-96000000D01*
X149600000Y-90800000D02*
X149600000Y-95900000D01*
X149600000Y-95900000D02*
X149600000Y-96000000D01*
X168600000Y-90800000D02*
X168600000Y-93000000D01*
X168600000Y-93000000D02*
X168600000Y-96000000D01*
D11*
G04 #@! TO.C,C1*
X101120000Y-128620000D02*
X91880000Y-128620000D01*
X101120000Y-110380000D02*
X91880000Y-110380000D01*
X91880000Y-110380000D02*
X91880000Y-128620000D01*
X101120000Y-110380000D02*
X101120000Y-128620000D01*
G04 #@! TO.C,Q1*
X138445000Y-92700763D02*
X146660000Y-92700763D01*
X146660000Y-90343971D02*
X146660000Y-92700763D01*
X140940000Y-92150000D02*
X140940000Y-92701452D01*
X144141000Y-92098603D02*
X144141000Y-92700792D01*
D12*
G36*
X138420000Y-90350000D02*
X138220000Y-90350000D01*
X138220000Y-92690000D01*
X138420000Y-92690000D01*
X138420000Y-90350000D01*
G37*
X138420000Y-90350000D02*
X138220000Y-90350000D01*
X138220000Y-92690000D01*
X138420000Y-92690000D01*
X138420000Y-90350000D01*
D13*
G04 #@! TO.C,RV1*
X141571000Y-104581400D02*
X148429000Y-104581400D01*
X148429000Y-104581400D02*
X148429000Y-101394324D01*
X148429000Y-97342400D02*
X141571000Y-97342400D01*
X141571000Y-97342400D02*
X141571000Y-99997514D01*
X141571000Y-101850086D02*
X141571000Y-104581400D01*
X148429000Y-100453276D02*
X148429000Y-97342400D01*
X142167000Y-105000000D02*
G75*
G03X142167000Y-105000000I-127000J0D01*
G01*
D11*
G04 #@! TO.C,R1*
X94130000Y-106450000D02*
X98870000Y-106450000D01*
X98870000Y-106450000D02*
X98870000Y-94310000D01*
X98870000Y-94310000D02*
X94130000Y-94310000D01*
X94130000Y-94310000D02*
X94130000Y-106450000D01*
X96500000Y-106560000D02*
X96500000Y-106450000D01*
X96500000Y-94200000D02*
X96500000Y-94310000D01*
G04 #@! TO.C,R2*
X140040000Y-97540000D02*
X140370000Y-97540000D01*
X140370000Y-97540000D02*
X140370000Y-104080000D01*
X140370000Y-104080000D02*
X140040000Y-104080000D01*
X137960000Y-97540000D02*
X137630000Y-97540000D01*
X137630000Y-97540000D02*
X137630000Y-104080000D01*
X137630000Y-104080000D02*
X137960000Y-104080000D01*
G04 #@! TO.C,R3*
X151830000Y-107080000D02*
X152160000Y-107080000D01*
X151830000Y-100540000D02*
X151830000Y-107080000D01*
X152160000Y-100540000D02*
X151830000Y-100540000D01*
X154570000Y-107080000D02*
X154240000Y-107080000D01*
X154570000Y-100540000D02*
X154570000Y-107080000D01*
X154240000Y-100540000D02*
X154570000Y-100540000D01*
G04 #@! TO.C,R4*
X157640000Y-100540000D02*
X157970000Y-100540000D01*
X157970000Y-100540000D02*
X157970000Y-107080000D01*
X157970000Y-107080000D02*
X157640000Y-107080000D01*
X155560000Y-100540000D02*
X155230000Y-100540000D01*
X155230000Y-100540000D02*
X155230000Y-107080000D01*
X155230000Y-107080000D02*
X155560000Y-107080000D01*
G04 #@! TO.C,C3*
D12*
X150633333Y-111957142D02*
X150585714Y-112004761D01*
X150442857Y-112052380D01*
X150347619Y-112052380D01*
X150204761Y-112004761D01*
X150109523Y-111909523D01*
X150061904Y-111814285D01*
X150014285Y-111623809D01*
X150014285Y-111480952D01*
X150061904Y-111290476D01*
X150109523Y-111195238D01*
X150204761Y-111100000D01*
X150347619Y-111052380D01*
X150442857Y-111052380D01*
X150585714Y-111100000D01*
X150633333Y-111147619D01*
X150966666Y-111052380D02*
X151585714Y-111052380D01*
X151252380Y-111433333D01*
X151395238Y-111433333D01*
X151490476Y-111480952D01*
X151538095Y-111528571D01*
X151585714Y-111623809D01*
X151585714Y-111861904D01*
X151538095Y-111957142D01*
X151490476Y-112004761D01*
X151395238Y-112052380D01*
X151109523Y-112052380D01*
X151014285Y-112004761D01*
X150966666Y-111957142D01*
G04 #@! TO.C,C4*
X156833333Y-114357142D02*
X156785714Y-114404761D01*
X156642857Y-114452380D01*
X156547619Y-114452380D01*
X156404761Y-114404761D01*
X156309523Y-114309523D01*
X156261904Y-114214285D01*
X156214285Y-114023809D01*
X156214285Y-113880952D01*
X156261904Y-113690476D01*
X156309523Y-113595238D01*
X156404761Y-113500000D01*
X156547619Y-113452380D01*
X156642857Y-113452380D01*
X156785714Y-113500000D01*
X156833333Y-113547619D01*
X157690476Y-113785714D02*
X157690476Y-114452380D01*
X157452380Y-113404761D02*
X157214285Y-114119047D01*
X157833333Y-114119047D01*
G04 #@! TO.C,C2*
X130833333Y-95357142D02*
X130785714Y-95404761D01*
X130642857Y-95452380D01*
X130547619Y-95452380D01*
X130404761Y-95404761D01*
X130309523Y-95309523D01*
X130261904Y-95214285D01*
X130214285Y-95023809D01*
X130214285Y-94880952D01*
X130261904Y-94690476D01*
X130309523Y-94595238D01*
X130404761Y-94500000D01*
X130547619Y-94452380D01*
X130642857Y-94452380D01*
X130785714Y-94500000D01*
X130833333Y-94547619D01*
X131214285Y-94547619D02*
X131261904Y-94500000D01*
X131357142Y-94452380D01*
X131595238Y-94452380D01*
X131690476Y-94500000D01*
X131738095Y-94547619D01*
X131785714Y-94642857D01*
X131785714Y-94738095D01*
X131738095Y-94880952D01*
X131166666Y-95452380D01*
X131785714Y-95452380D01*
G04 #@! TO.C,Q2*
X164904761Y-97547619D02*
X164809523Y-97500000D01*
X164714285Y-97404761D01*
X164571428Y-97261904D01*
X164476190Y-97214285D01*
X164380952Y-97214285D01*
X164428571Y-97452380D02*
X164333333Y-97404761D01*
X164238095Y-97309523D01*
X164190476Y-97119047D01*
X164190476Y-96785714D01*
X164238095Y-96595238D01*
X164333333Y-96500000D01*
X164428571Y-96452380D01*
X164619047Y-96452380D01*
X164714285Y-96500000D01*
X164809523Y-96595238D01*
X164857142Y-96785714D01*
X164857142Y-97119047D01*
X164809523Y-97309523D01*
X164714285Y-97404761D01*
X164619047Y-97452380D01*
X164428571Y-97452380D01*
X165238095Y-96547619D02*
X165285714Y-96500000D01*
X165380952Y-96452380D01*
X165619047Y-96452380D01*
X165714285Y-96500000D01*
X165761904Y-96547619D01*
X165809523Y-96642857D01*
X165809523Y-96738095D01*
X165761904Y-96880952D01*
X165190476Y-97452380D01*
X165809523Y-97452380D01*
G04 #@! TO.C,C1*
X92833333Y-109357142D02*
X92785714Y-109404761D01*
X92642857Y-109452380D01*
X92547619Y-109452380D01*
X92404761Y-109404761D01*
X92309523Y-109309523D01*
X92261904Y-109214285D01*
X92214285Y-109023809D01*
X92214285Y-108880952D01*
X92261904Y-108690476D01*
X92309523Y-108595238D01*
X92404761Y-108500000D01*
X92547619Y-108452380D01*
X92642857Y-108452380D01*
X92785714Y-108500000D01*
X92833333Y-108547619D01*
X93785714Y-109452380D02*
X93214285Y-109452380D01*
X93500000Y-109452380D02*
X93500000Y-108452380D01*
X93404761Y-108595238D01*
X93309523Y-108690476D01*
X93214285Y-108738095D01*
G04 #@! TO.C,Q1*
X139904761Y-94547619D02*
X139809523Y-94500000D01*
X139714285Y-94404761D01*
X139571428Y-94261904D01*
X139476190Y-94214285D01*
X139380952Y-94214285D01*
X139428571Y-94452380D02*
X139333333Y-94404761D01*
X139238095Y-94309523D01*
X139190476Y-94119047D01*
X139190476Y-93785714D01*
X139238095Y-93595238D01*
X139333333Y-93500000D01*
X139428571Y-93452380D01*
X139619047Y-93452380D01*
X139714285Y-93500000D01*
X139809523Y-93595238D01*
X139857142Y-93785714D01*
X139857142Y-94119047D01*
X139809523Y-94309523D01*
X139714285Y-94404761D01*
X139619047Y-94452380D01*
X139428571Y-94452380D01*
X140809523Y-94452380D02*
X140238095Y-94452380D01*
X140523809Y-94452380D02*
X140523809Y-93452380D01*
X140428571Y-93595238D01*
X140333333Y-93690476D01*
X140238095Y-93738095D01*
G04 #@! TO.C,RV1*
X149404761Y-103452380D02*
X149071428Y-102976190D01*
X148833333Y-103452380D02*
X148833333Y-102452380D01*
X149214285Y-102452380D01*
X149309523Y-102500000D01*
X149357142Y-102547619D01*
X149404761Y-102642857D01*
X149404761Y-102785714D01*
X149357142Y-102880952D01*
X149309523Y-102928571D01*
X149214285Y-102976190D01*
X148833333Y-102976190D01*
X149690476Y-102452380D02*
X150023809Y-103452380D01*
X150357142Y-102452380D01*
X151214285Y-103452380D02*
X150642857Y-103452380D01*
X150928571Y-103452380D02*
X150928571Y-102452380D01*
X150833333Y-102595238D01*
X150738095Y-102690476D01*
X150642857Y-102738095D01*
G04 #@! TO.C,R1*
X92833333Y-96452380D02*
X92500000Y-95976190D01*
X92261904Y-96452380D02*
X92261904Y-95452380D01*
X92642857Y-95452380D01*
X92738095Y-95500000D01*
X92785714Y-95547619D01*
X92833333Y-95642857D01*
X92833333Y-95785714D01*
X92785714Y-95880952D01*
X92738095Y-95928571D01*
X92642857Y-95976190D01*
X92261904Y-95976190D01*
X93785714Y-96452380D02*
X93214285Y-96452380D01*
X93500000Y-96452380D02*
X93500000Y-95452380D01*
X93404761Y-95595238D01*
X93309523Y-95690476D01*
X93214285Y-95738095D01*
G04 #@! TO.C,R2*
X136233333Y-101252380D02*
X135900000Y-100776190D01*
X135661904Y-101252380D02*
X135661904Y-100252380D01*
X136042857Y-100252380D01*
X136138095Y-100300000D01*
X136185714Y-100347619D01*
X136233333Y-100442857D01*
X136233333Y-100585714D01*
X136185714Y-100680952D01*
X136138095Y-100728571D01*
X136042857Y-100776190D01*
X135661904Y-100776190D01*
X136614285Y-100347619D02*
X136661904Y-100300000D01*
X136757142Y-100252380D01*
X136995238Y-100252380D01*
X137090476Y-100300000D01*
X137138095Y-100347619D01*
X137185714Y-100442857D01*
X137185714Y-100538095D01*
X137138095Y-100680952D01*
X136566666Y-101252380D01*
X137185714Y-101252380D01*
G04 #@! TO.C,R3*
X153033333Y-97852380D02*
X152700000Y-97376190D01*
X152461904Y-97852380D02*
X152461904Y-96852380D01*
X152842857Y-96852380D01*
X152938095Y-96900000D01*
X152985714Y-96947619D01*
X153033333Y-97042857D01*
X153033333Y-97185714D01*
X152985714Y-97280952D01*
X152938095Y-97328571D01*
X152842857Y-97376190D01*
X152461904Y-97376190D01*
X153366666Y-96852380D02*
X153985714Y-96852380D01*
X153652380Y-97233333D01*
X153795238Y-97233333D01*
X153890476Y-97280952D01*
X153938095Y-97328571D01*
X153985714Y-97423809D01*
X153985714Y-97661904D01*
X153938095Y-97757142D01*
X153890476Y-97804761D01*
X153795238Y-97852380D01*
X153509523Y-97852380D01*
X153414285Y-97804761D01*
X153366666Y-97757142D01*
G04 #@! TO.C,R4*
X156433333Y-97852380D02*
X156100000Y-97376190D01*
X155861904Y-97852380D02*
X155861904Y-96852380D01*
X156242857Y-96852380D01*
X156338095Y-96900000D01*
X156385714Y-96947619D01*
X156433333Y-97042857D01*
X156433333Y-97185714D01*
X156385714Y-97280952D01*
X156338095Y-97328571D01*
X156242857Y-97376190D01*
X155861904Y-97376190D01*
X157290476Y-97185714D02*
X157290476Y-97852380D01*
X157052380Y-96804761D02*
X156814285Y-97519047D01*
X157433333Y-97519047D01*
G04 #@! TD*
M02*
