G04 #@! TF.GenerationSoftware,KiCad,Pcbnew,(5.0.0-3-g5ebb6b6)*
G04 #@! TF.CreationDate,2018-08-10T20:06:04-07:00*
G04 #@! TF.ProjectId,juma-adj-cx,6A756D612D61646A2D63782E6B696361,rev?*
G04 #@! TF.SameCoordinates,Original*
G04 #@! TF.FileFunction,Copper,L1,Top,Signal*
G04 #@! TF.FilePolarity,Positive*
%FSLAX46Y46*%
G04 Gerber Fmt 4.6, Leading zero omitted, Abs format (unit mm)*
G04 Created by KiCad (PCBNEW (5.0.0-3-g5ebb6b6)) date Friday, August 10, 2018 at 08:06:04 PM*
%MOMM*%
%LPD*%
G01*
G04 APERTURE LIST*
G04 #@! TA.AperFunction,ComponentPad*
%ADD10R,2.400000X2.400000*%
G04 #@! TD*
G04 #@! TA.AperFunction,ComponentPad*
%ADD11C,2.400000*%
G04 #@! TD*
G04 #@! TA.AperFunction,ComponentPad*
%ADD12R,4.000000X4.000000*%
G04 #@! TD*
G04 #@! TA.AperFunction,ComponentPad*
%ADD13C,4.000000*%
G04 #@! TD*
G04 #@! TA.AperFunction,ComponentPad*
%ADD14O,8.500000X3.400000*%
G04 #@! TD*
G04 #@! TA.AperFunction,ComponentPad*
%ADD15C,2.000000*%
G04 #@! TD*
G04 #@! TA.AperFunction,ComponentPad*
%ADD16O,2.500000X4.500000*%
G04 #@! TD*
G04 #@! TA.AperFunction,ComponentPad*
%ADD17O,1.800000X2.200000*%
G04 #@! TD*
G04 #@! TA.AperFunction,ComponentPad*
%ADD18R,1.346200X1.346200*%
G04 #@! TD*
G04 #@! TA.AperFunction,ComponentPad*
%ADD19C,1.346200*%
G04 #@! TD*
G04 #@! TA.AperFunction,ComponentPad*
%ADD20O,2.400000X2.400000*%
G04 #@! TD*
G04 #@! TA.AperFunction,ComponentPad*
%ADD21C,1.600000*%
G04 #@! TD*
G04 #@! TA.AperFunction,ComponentPad*
%ADD22O,1.600000X1.600000*%
G04 #@! TD*
G04 #@! TA.AperFunction,ViaPad*
%ADD23C,0.800000*%
G04 #@! TD*
G04 #@! TA.AperFunction,Conductor*
%ADD24C,1.000000*%
G04 #@! TD*
G04 #@! TA.AperFunction,Conductor*
%ADD25C,0.254000*%
G04 #@! TD*
G04 APERTURE END LIST*
D10*
G04 #@! TO.P,C3,1*
G04 #@! TO.N,Net-(C3-Pad1)*
X140800000Y-111600000D03*
D11*
G04 #@! TO.P,C3,2*
G04 #@! TO.N,Net-(C1-Pad2)*
X145800000Y-111600000D03*
G04 #@! TD*
G04 #@! TO.P,C4,2*
G04 #@! TO.N,Net-(C1-Pad2)*
X155500000Y-120500000D03*
D10*
G04 #@! TO.P,C4,1*
G04 #@! TO.N,Net-(C4-Pad1)*
X150500000Y-120500000D03*
G04 #@! TD*
D12*
G04 #@! TO.P,C2,1*
G04 #@! TO.N,Net-(C1-Pad1)*
X119000000Y-105000000D03*
D13*
G04 #@! TO.P,C2,2*
G04 #@! TO.N,Net-(C1-Pad2)*
X119000000Y-115000000D03*
G04 #@! TD*
D14*
G04 #@! TO.P,J4,1*
G04 #@! TO.N,Net-(C1-Pad2)*
X164000000Y-114000000D03*
D15*
X161460000Y-114000000D03*
G04 #@! TD*
D14*
G04 #@! TO.P,J2,1*
G04 #@! TO.N,Net-(C1-Pad2)*
X86000000Y-114000000D03*
D15*
X83460000Y-114000000D03*
G04 #@! TD*
D14*
G04 #@! TO.P,J3,1*
G04 #@! TO.N,Net-(J3-Pad1)*
X164000000Y-105000000D03*
D15*
X161460000Y-105000000D03*
G04 #@! TD*
D14*
G04 #@! TO.P,J1,1*
G04 #@! TO.N,Net-(C1-Pad1)*
X86000000Y-105000000D03*
D15*
X83460000Y-105000000D03*
G04 #@! TD*
D16*
G04 #@! TO.P,Q2,1*
G04 #@! TO.N,Net-(Q1-Pad1)*
X154000000Y-92800000D03*
G04 #@! TO.P,Q2,2*
G04 #@! TO.N,Net-(C1-Pad1)*
X159450000Y-92800000D03*
G04 #@! TO.P,Q2,3*
G04 #@! TO.N,Net-(J3-Pad1)*
X164900000Y-92800000D03*
G04 #@! TD*
D11*
G04 #@! TO.P,C1,2*
G04 #@! TO.N,Net-(C1-Pad2)*
X96500000Y-127000000D03*
G04 #@! TO.P,C1,1*
G04 #@! TO.N,Net-(C1-Pad1)*
X96500000Y-112000000D03*
G04 #@! TD*
D17*
G04 #@! TO.P,Q1,1*
G04 #@! TO.N,Net-(Q1-Pad1)*
X140000000Y-91400000D03*
G04 #@! TO.P,Q1,2*
G04 #@! TO.N,Net-(C1-Pad1)*
X142540000Y-91400000D03*
G04 #@! TO.P,Q1,3*
G04 #@! TO.N,Net-(C4-Pad1)*
X145080000Y-91400000D03*
G04 #@! TD*
D18*
G04 #@! TO.P,RV1,1*
G04 #@! TO.N,Net-(C3-Pad1)*
X142460000Y-100923800D03*
D19*
G04 #@! TO.P,RV1,2*
G04 #@! TO.N,Net-(C4-Pad1)*
X145000000Y-98383800D03*
G04 #@! TO.P,RV1,3*
G04 #@! TO.N,Net-(R3-Pad1)*
X147540000Y-100923800D03*
G04 #@! TD*
D11*
G04 #@! TO.P,R1,1*
G04 #@! TO.N,Net-(C1-Pad1)*
X96500000Y-108000000D03*
D20*
G04 #@! TO.P,R1,2*
G04 #@! TO.N,Net-(C1-Pad2)*
X96500000Y-92760000D03*
G04 #@! TD*
D21*
G04 #@! TO.P,R2,1*
G04 #@! TO.N,Net-(C1-Pad1)*
X139000000Y-97000000D03*
D22*
G04 #@! TO.P,R2,2*
G04 #@! TO.N,Net-(C3-Pad1)*
X139000000Y-104620000D03*
G04 #@! TD*
G04 #@! TO.P,R3,2*
G04 #@! TO.N,Net-(C1-Pad2)*
X153200000Y-107620000D03*
D21*
G04 #@! TO.P,R3,1*
G04 #@! TO.N,Net-(R3-Pad1)*
X153200000Y-100000000D03*
G04 #@! TD*
G04 #@! TO.P,R4,1*
G04 #@! TO.N,Net-(Q1-Pad1)*
X156600000Y-100000000D03*
D22*
G04 #@! TO.P,R4,2*
G04 #@! TO.N,Net-(C1-Pad2)*
X156600000Y-107620000D03*
G04 #@! TD*
D23*
G04 #@! TO.N,Net-(C1-Pad2)*
X84000000Y-111000000D03*
X86000000Y-110000000D03*
X88000000Y-111000000D03*
X90000000Y-110000000D03*
X160000000Y-111000000D03*
X164000000Y-111000000D03*
X166000000Y-110000000D03*
X168000000Y-111000000D03*
X84000000Y-118000000D03*
X88000000Y-118000000D03*
X136000000Y-118000000D03*
X160000000Y-117000000D03*
X168000000Y-117000000D03*
X84000000Y-120000000D03*
X86000000Y-119000000D03*
X88000000Y-120000000D03*
X102000000Y-119000000D03*
X136000000Y-120000000D03*
X138000000Y-119000000D03*
X162000000Y-118000000D03*
X166000000Y-118000000D03*
X86000000Y-121000000D03*
X88000000Y-122000000D03*
X102000000Y-121000000D03*
X104000000Y-122000000D03*
X134000000Y-121000000D03*
X138000000Y-121000000D03*
X140000000Y-122000000D03*
X102000000Y-123000000D03*
X104000000Y-124000000D03*
X106000000Y-123000000D03*
X132000000Y-124000000D03*
X134000000Y-123000000D03*
X138000000Y-123000000D03*
X140000000Y-124000000D03*
X144000000Y-124000000D03*
X160000000Y-124000000D03*
X102000000Y-125000000D03*
X104000000Y-126000000D03*
X106000000Y-125000000D03*
X108000000Y-126000000D03*
X128000000Y-126000000D03*
X130000000Y-125000000D03*
X132000000Y-126000000D03*
X134000000Y-125000000D03*
X136000000Y-126000000D03*
X138000000Y-125000000D03*
X140000000Y-126000000D03*
X142000000Y-125000000D03*
X144000000Y-126000000D03*
X160000000Y-126000000D03*
X102000000Y-127000000D03*
X104000000Y-128000000D03*
X106000000Y-127000000D03*
X108000000Y-128000000D03*
X110000000Y-127000000D03*
X112000000Y-128000000D03*
X120400000Y-128000000D03*
X124000000Y-128000000D03*
X126000000Y-127000000D03*
X128000000Y-128000000D03*
X130000000Y-127000000D03*
X132000000Y-128000000D03*
X134000000Y-127000000D03*
X136000000Y-128000000D03*
X138000000Y-127000000D03*
X140000000Y-128000000D03*
X142000000Y-127000000D03*
X144000000Y-128000000D03*
X162000000Y-129000000D03*
X82000000Y-121000000D03*
X82000000Y-119000000D03*
X82000000Y-117000000D03*
X82000000Y-112000000D03*
X82000000Y-110000000D03*
X90000000Y-112000000D03*
X102000000Y-117000000D03*
X164000000Y-117000000D03*
X142000000Y-123000000D03*
X156000000Y-128000000D03*
X136000000Y-124000000D03*
X136000000Y-122000000D03*
X138000000Y-117000000D03*
X140000000Y-120000000D03*
X140000000Y-118000000D03*
X142000000Y-121000000D03*
X142000000Y-119000000D03*
X162000000Y-123000000D03*
X160000000Y-128000000D03*
X150000000Y-129000000D03*
X152000000Y-128000000D03*
X150000000Y-127000000D03*
X146000000Y-127000000D03*
X146000000Y-125000000D03*
X146000000Y-129000000D03*
X148000000Y-128000000D03*
X148000000Y-126000000D03*
X158000000Y-129000000D03*
X158000000Y-127000000D03*
X154000000Y-129000000D03*
X142000000Y-129000000D03*
X138000000Y-129000000D03*
X134000000Y-129000000D03*
X130000000Y-129000000D03*
X126000000Y-129000000D03*
X110000000Y-129000000D03*
X106000000Y-129000000D03*
X102000000Y-129000000D03*
X114000000Y-129000000D03*
X118000000Y-129000000D03*
X116000000Y-128000000D03*
X122000000Y-129000000D03*
X86000000Y-117000000D03*
X88000000Y-124000000D03*
X88000000Y-128000000D03*
X90000000Y-121000000D03*
X90000000Y-119000000D03*
X90000000Y-117000000D03*
X90000000Y-125000000D03*
X90000000Y-127000000D03*
X90000000Y-123000000D03*
X90000000Y-129000000D03*
X160000000Y-122000000D03*
X162000000Y-121000000D03*
X166000000Y-121000000D03*
X164000000Y-122000000D03*
X168000000Y-122000000D03*
X162000000Y-110000000D03*
X86000000Y-110000000D03*
G04 #@! TD*
D24*
G04 #@! TO.N,Net-(C4-Pad1)*
X145080000Y-98303800D02*
X145000000Y-98383800D01*
X145080000Y-91100000D02*
X145080000Y-98303800D01*
G04 #@! TD*
D25*
G04 #@! TO.N,Net-(J3-Pad1)*
G36*
X168362294Y-90761047D02*
X168695467Y-90912531D01*
X168972728Y-91151435D01*
X169171794Y-91458556D01*
X169283613Y-91832455D01*
X169298001Y-92026065D01*
X169298001Y-108873000D01*
X159127000Y-108873000D01*
X159127000Y-101095797D01*
X162534890Y-100122114D01*
X162578965Y-100099467D01*
X162611018Y-100061677D01*
X162627000Y-100000000D01*
X162627000Y-90702000D01*
X167949988Y-90702000D01*
X168362294Y-90761047D01*
X168362294Y-90761047D01*
G37*
X168362294Y-90761047D02*
X168695467Y-90912531D01*
X168972728Y-91151435D01*
X169171794Y-91458556D01*
X169283613Y-91832455D01*
X169298001Y-92026065D01*
X169298001Y-108873000D01*
X159127000Y-108873000D01*
X159127000Y-101095797D01*
X162534890Y-100122114D01*
X162578965Y-100099467D01*
X162611018Y-100061677D01*
X162627000Y-100000000D01*
X162627000Y-90702000D01*
X167949988Y-90702000D01*
X168362294Y-90761047D01*
G04 #@! TO.N,Net-(C1-Pad1)*
G36*
X138473000Y-91049608D02*
X138473000Y-91750393D01*
X138561598Y-92195806D01*
X138899095Y-92700905D01*
X139404195Y-93038402D01*
X140000000Y-93156915D01*
X140595806Y-93038402D01*
X141100905Y-92700905D01*
X141438402Y-92195805D01*
X141527000Y-91750392D01*
X141527000Y-91049607D01*
X141457857Y-90702000D01*
X143622143Y-90702000D01*
X143553000Y-91049608D01*
X143553000Y-91750393D01*
X143641598Y-92195806D01*
X143953000Y-92661851D01*
X143953001Y-97592181D01*
X143897829Y-97647353D01*
X143699900Y-98125194D01*
X143699900Y-98642406D01*
X143897829Y-99120247D01*
X144263553Y-99485971D01*
X144741394Y-99683900D01*
X145258606Y-99683900D01*
X145736447Y-99485971D01*
X146102171Y-99120247D01*
X146300100Y-98642406D01*
X146300100Y-98125194D01*
X146207000Y-97900432D01*
X146207000Y-92661851D01*
X146518402Y-92195805D01*
X146607000Y-91750392D01*
X146607000Y-91049607D01*
X146537857Y-90702000D01*
X152476212Y-90702000D01*
X152231905Y-91067632D01*
X152123000Y-91615135D01*
X152123001Y-93984866D01*
X152231906Y-94532369D01*
X152646760Y-95153241D01*
X153267632Y-95568095D01*
X154000000Y-95713772D01*
X154732369Y-95568095D01*
X155353241Y-95153241D01*
X155768095Y-94532369D01*
X155877000Y-93984866D01*
X155877000Y-91615134D01*
X155768095Y-91067631D01*
X155523788Y-90702000D01*
X161873000Y-90702000D01*
X161873000Y-99527053D01*
X158827750Y-100397124D01*
X158556644Y-100556644D01*
X158420728Y-100760057D01*
X158373000Y-101000000D01*
X158373000Y-105373000D01*
X151000000Y-105373000D01*
X150719597Y-105439194D01*
X143851985Y-108873000D01*
X101000000Y-108873000D01*
X100951399Y-108882667D01*
X100910197Y-108910197D01*
X100882667Y-108951399D01*
X100873000Y-109000000D01*
X100873000Y-115373000D01*
X92127000Y-115373000D01*
X92127000Y-109000000D01*
X92117333Y-108951399D01*
X92089803Y-108910197D01*
X92048601Y-108882667D01*
X92000000Y-108873000D01*
X80702000Y-108873000D01*
X80702000Y-104620000D01*
X137545044Y-104620000D01*
X137655796Y-105176788D01*
X137971191Y-105648809D01*
X138443212Y-105964204D01*
X138859456Y-106047000D01*
X139140544Y-106047000D01*
X139556788Y-105964204D01*
X140028809Y-105648809D01*
X140344204Y-105176788D01*
X140454956Y-104620000D01*
X140344204Y-104063212D01*
X140028809Y-103591191D01*
X139556788Y-103275796D01*
X139140544Y-103193000D01*
X138859456Y-103193000D01*
X138443212Y-103275796D01*
X137971191Y-103591191D01*
X137655796Y-104063212D01*
X137545044Y-104620000D01*
X80702000Y-104620000D01*
X80702000Y-100250700D01*
X141147617Y-100250700D01*
X141147617Y-101596900D01*
X141196280Y-101841543D01*
X141334859Y-102048941D01*
X141542257Y-102187520D01*
X141786900Y-102236183D01*
X143133100Y-102236183D01*
X143377743Y-102187520D01*
X143585141Y-102048941D01*
X143723720Y-101841543D01*
X143772383Y-101596900D01*
X143772383Y-100665194D01*
X146239900Y-100665194D01*
X146239900Y-101182406D01*
X146437829Y-101660247D01*
X146803553Y-102025971D01*
X147281394Y-102223900D01*
X147798606Y-102223900D01*
X148276447Y-102025971D01*
X148642171Y-101660247D01*
X148840100Y-101182406D01*
X148840100Y-100665194D01*
X148642171Y-100187353D01*
X148276447Y-99821629D01*
X148021804Y-99716152D01*
X151773000Y-99716152D01*
X151773000Y-100283848D01*
X151990247Y-100808331D01*
X152391669Y-101209753D01*
X152916152Y-101427000D01*
X153483848Y-101427000D01*
X154008331Y-101209753D01*
X154409753Y-100808331D01*
X154627000Y-100283848D01*
X154627000Y-99716152D01*
X155173000Y-99716152D01*
X155173000Y-100283848D01*
X155390247Y-100808331D01*
X155791669Y-101209753D01*
X156316152Y-101427000D01*
X156883848Y-101427000D01*
X157408331Y-101209753D01*
X157809753Y-100808331D01*
X158027000Y-100283848D01*
X158027000Y-99716152D01*
X157809753Y-99191669D01*
X157408331Y-98790247D01*
X156883848Y-98573000D01*
X156316152Y-98573000D01*
X155791669Y-98790247D01*
X155390247Y-99191669D01*
X155173000Y-99716152D01*
X154627000Y-99716152D01*
X154409753Y-99191669D01*
X154008331Y-98790247D01*
X153483848Y-98573000D01*
X152916152Y-98573000D01*
X152391669Y-98790247D01*
X151990247Y-99191669D01*
X151773000Y-99716152D01*
X148021804Y-99716152D01*
X147798606Y-99623700D01*
X147281394Y-99623700D01*
X146803553Y-99821629D01*
X146437829Y-100187353D01*
X146239900Y-100665194D01*
X143772383Y-100665194D01*
X143772383Y-100250700D01*
X143723720Y-100006057D01*
X143585141Y-99798659D01*
X143377743Y-99660080D01*
X143133100Y-99611417D01*
X141786900Y-99611417D01*
X141542257Y-99660080D01*
X141334859Y-99798659D01*
X141196280Y-100006057D01*
X141147617Y-100250700D01*
X80702000Y-100250700D01*
X80702000Y-95777044D01*
X80840402Y-96111176D01*
X81888824Y-97159598D01*
X83258654Y-97727000D01*
X84741346Y-97727000D01*
X86111176Y-97159598D01*
X87159598Y-96111176D01*
X87727000Y-94741346D01*
X87727000Y-93258654D01*
X87520451Y-92760000D01*
X94637207Y-92760000D01*
X94779004Y-93472860D01*
X95182806Y-94077194D01*
X95787140Y-94480996D01*
X96320057Y-94587000D01*
X96679943Y-94587000D01*
X97212860Y-94480996D01*
X97817194Y-94077194D01*
X98220996Y-93472860D01*
X98362793Y-92760000D01*
X98220996Y-92047140D01*
X97817194Y-91442806D01*
X97212860Y-91039004D01*
X96679943Y-90933000D01*
X96320057Y-90933000D01*
X95787140Y-91039004D01*
X95182806Y-91442806D01*
X94779004Y-92047140D01*
X94637207Y-92760000D01*
X87520451Y-92760000D01*
X87159598Y-91888824D01*
X86111176Y-90840402D01*
X85777044Y-90702000D01*
X138542143Y-90702000D01*
X138473000Y-91049608D01*
X138473000Y-91049608D01*
G37*
X138473000Y-91049608D02*
X138473000Y-91750393D01*
X138561598Y-92195806D01*
X138899095Y-92700905D01*
X139404195Y-93038402D01*
X140000000Y-93156915D01*
X140595806Y-93038402D01*
X141100905Y-92700905D01*
X141438402Y-92195805D01*
X141527000Y-91750392D01*
X141527000Y-91049607D01*
X141457857Y-90702000D01*
X143622143Y-90702000D01*
X143553000Y-91049608D01*
X143553000Y-91750393D01*
X143641598Y-92195806D01*
X143953000Y-92661851D01*
X143953001Y-97592181D01*
X143897829Y-97647353D01*
X143699900Y-98125194D01*
X143699900Y-98642406D01*
X143897829Y-99120247D01*
X144263553Y-99485971D01*
X144741394Y-99683900D01*
X145258606Y-99683900D01*
X145736447Y-99485971D01*
X146102171Y-99120247D01*
X146300100Y-98642406D01*
X146300100Y-98125194D01*
X146207000Y-97900432D01*
X146207000Y-92661851D01*
X146518402Y-92195805D01*
X146607000Y-91750392D01*
X146607000Y-91049607D01*
X146537857Y-90702000D01*
X152476212Y-90702000D01*
X152231905Y-91067632D01*
X152123000Y-91615135D01*
X152123001Y-93984866D01*
X152231906Y-94532369D01*
X152646760Y-95153241D01*
X153267632Y-95568095D01*
X154000000Y-95713772D01*
X154732369Y-95568095D01*
X155353241Y-95153241D01*
X155768095Y-94532369D01*
X155877000Y-93984866D01*
X155877000Y-91615134D01*
X155768095Y-91067631D01*
X155523788Y-90702000D01*
X161873000Y-90702000D01*
X161873000Y-99527053D01*
X158827750Y-100397124D01*
X158556644Y-100556644D01*
X158420728Y-100760057D01*
X158373000Y-101000000D01*
X158373000Y-105373000D01*
X151000000Y-105373000D01*
X150719597Y-105439194D01*
X143851985Y-108873000D01*
X101000000Y-108873000D01*
X100951399Y-108882667D01*
X100910197Y-108910197D01*
X100882667Y-108951399D01*
X100873000Y-109000000D01*
X100873000Y-115373000D01*
X92127000Y-115373000D01*
X92127000Y-109000000D01*
X92117333Y-108951399D01*
X92089803Y-108910197D01*
X92048601Y-108882667D01*
X92000000Y-108873000D01*
X80702000Y-108873000D01*
X80702000Y-104620000D01*
X137545044Y-104620000D01*
X137655796Y-105176788D01*
X137971191Y-105648809D01*
X138443212Y-105964204D01*
X138859456Y-106047000D01*
X139140544Y-106047000D01*
X139556788Y-105964204D01*
X140028809Y-105648809D01*
X140344204Y-105176788D01*
X140454956Y-104620000D01*
X140344204Y-104063212D01*
X140028809Y-103591191D01*
X139556788Y-103275796D01*
X139140544Y-103193000D01*
X138859456Y-103193000D01*
X138443212Y-103275796D01*
X137971191Y-103591191D01*
X137655796Y-104063212D01*
X137545044Y-104620000D01*
X80702000Y-104620000D01*
X80702000Y-100250700D01*
X141147617Y-100250700D01*
X141147617Y-101596900D01*
X141196280Y-101841543D01*
X141334859Y-102048941D01*
X141542257Y-102187520D01*
X141786900Y-102236183D01*
X143133100Y-102236183D01*
X143377743Y-102187520D01*
X143585141Y-102048941D01*
X143723720Y-101841543D01*
X143772383Y-101596900D01*
X143772383Y-100665194D01*
X146239900Y-100665194D01*
X146239900Y-101182406D01*
X146437829Y-101660247D01*
X146803553Y-102025971D01*
X147281394Y-102223900D01*
X147798606Y-102223900D01*
X148276447Y-102025971D01*
X148642171Y-101660247D01*
X148840100Y-101182406D01*
X148840100Y-100665194D01*
X148642171Y-100187353D01*
X148276447Y-99821629D01*
X148021804Y-99716152D01*
X151773000Y-99716152D01*
X151773000Y-100283848D01*
X151990247Y-100808331D01*
X152391669Y-101209753D01*
X152916152Y-101427000D01*
X153483848Y-101427000D01*
X154008331Y-101209753D01*
X154409753Y-100808331D01*
X154627000Y-100283848D01*
X154627000Y-99716152D01*
X155173000Y-99716152D01*
X155173000Y-100283848D01*
X155390247Y-100808331D01*
X155791669Y-101209753D01*
X156316152Y-101427000D01*
X156883848Y-101427000D01*
X157408331Y-101209753D01*
X157809753Y-100808331D01*
X158027000Y-100283848D01*
X158027000Y-99716152D01*
X157809753Y-99191669D01*
X157408331Y-98790247D01*
X156883848Y-98573000D01*
X156316152Y-98573000D01*
X155791669Y-98790247D01*
X155390247Y-99191669D01*
X155173000Y-99716152D01*
X154627000Y-99716152D01*
X154409753Y-99191669D01*
X154008331Y-98790247D01*
X153483848Y-98573000D01*
X152916152Y-98573000D01*
X152391669Y-98790247D01*
X151990247Y-99191669D01*
X151773000Y-99716152D01*
X148021804Y-99716152D01*
X147798606Y-99623700D01*
X147281394Y-99623700D01*
X146803553Y-99821629D01*
X146437829Y-100187353D01*
X146239900Y-100665194D01*
X143772383Y-100665194D01*
X143772383Y-100250700D01*
X143723720Y-100006057D01*
X143585141Y-99798659D01*
X143377743Y-99660080D01*
X143133100Y-99611417D01*
X141786900Y-99611417D01*
X141542257Y-99660080D01*
X141334859Y-99798659D01*
X141196280Y-100006057D01*
X141147617Y-100250700D01*
X80702000Y-100250700D01*
X80702000Y-95777044D01*
X80840402Y-96111176D01*
X81888824Y-97159598D01*
X83258654Y-97727000D01*
X84741346Y-97727000D01*
X86111176Y-97159598D01*
X87159598Y-96111176D01*
X87727000Y-94741346D01*
X87727000Y-93258654D01*
X87520451Y-92760000D01*
X94637207Y-92760000D01*
X94779004Y-93472860D01*
X95182806Y-94077194D01*
X95787140Y-94480996D01*
X96320057Y-94587000D01*
X96679943Y-94587000D01*
X97212860Y-94480996D01*
X97817194Y-94077194D01*
X98220996Y-93472860D01*
X98362793Y-92760000D01*
X98220996Y-92047140D01*
X97817194Y-91442806D01*
X97212860Y-91039004D01*
X96679943Y-90933000D01*
X96320057Y-90933000D01*
X95787140Y-91039004D01*
X95182806Y-91442806D01*
X94779004Y-92047140D01*
X94637207Y-92760000D01*
X87520451Y-92760000D01*
X87159598Y-91888824D01*
X86111176Y-90840402D01*
X85777044Y-90702000D01*
X138542143Y-90702000D01*
X138473000Y-91049608D01*
G04 #@! TO.N,Net-(C1-Pad2)*
G36*
X158373000Y-109500000D02*
X158382667Y-109548601D01*
X158410197Y-109589803D01*
X158451399Y-109617333D01*
X158500000Y-109627000D01*
X169298000Y-109627000D01*
X169298000Y-119873000D01*
X158000000Y-119873000D01*
X157951399Y-119882667D01*
X157910197Y-119910197D01*
X157891098Y-119934659D01*
X156428093Y-122373000D01*
X144127000Y-122373000D01*
X144127000Y-119300000D01*
X148660717Y-119300000D01*
X148660717Y-121700000D01*
X148709380Y-121944643D01*
X148847959Y-122152041D01*
X149055357Y-122290620D01*
X149300000Y-122339283D01*
X151700000Y-122339283D01*
X151944643Y-122290620D01*
X152152041Y-122152041D01*
X152290620Y-121944643D01*
X152339283Y-121700000D01*
X152339283Y-119300000D01*
X152290620Y-119055357D01*
X152152041Y-118847959D01*
X151944643Y-118709380D01*
X151700000Y-118660717D01*
X149300000Y-118660717D01*
X149055357Y-118709380D01*
X148847959Y-118847959D01*
X148709380Y-119055357D01*
X148660717Y-119300000D01*
X144127000Y-119300000D01*
X144127000Y-109578490D01*
X151029980Y-106127000D01*
X158373000Y-106127000D01*
X158373000Y-109500000D01*
X158373000Y-109500000D01*
G37*
X158373000Y-109500000D02*
X158382667Y-109548601D01*
X158410197Y-109589803D01*
X158451399Y-109617333D01*
X158500000Y-109627000D01*
X169298000Y-109627000D01*
X169298000Y-119873000D01*
X158000000Y-119873000D01*
X157951399Y-119882667D01*
X157910197Y-119910197D01*
X157891098Y-119934659D01*
X156428093Y-122373000D01*
X144127000Y-122373000D01*
X144127000Y-119300000D01*
X148660717Y-119300000D01*
X148660717Y-121700000D01*
X148709380Y-121944643D01*
X148847959Y-122152041D01*
X149055357Y-122290620D01*
X149300000Y-122339283D01*
X151700000Y-122339283D01*
X151944643Y-122290620D01*
X152152041Y-122152041D01*
X152290620Y-121944643D01*
X152339283Y-121700000D01*
X152339283Y-119300000D01*
X152290620Y-119055357D01*
X152152041Y-118847959D01*
X151944643Y-118709380D01*
X151700000Y-118660717D01*
X149300000Y-118660717D01*
X149055357Y-118709380D01*
X148847959Y-118847959D01*
X148709380Y-119055357D01*
X148660717Y-119300000D01*
X144127000Y-119300000D01*
X144127000Y-109578490D01*
X151029980Y-106127000D01*
X158373000Y-106127000D01*
X158373000Y-109500000D01*
G36*
X91373000Y-115500000D02*
X91420728Y-115739943D01*
X91556644Y-115943356D01*
X91760057Y-116079272D01*
X92000000Y-116127000D01*
X101000000Y-116127000D01*
X101239943Y-116079272D01*
X101443356Y-115943356D01*
X101579272Y-115739943D01*
X101627000Y-115500000D01*
X101627000Y-110400000D01*
X138960717Y-110400000D01*
X138960717Y-112800000D01*
X139009380Y-113044643D01*
X139147959Y-113252041D01*
X139355357Y-113390620D01*
X139600000Y-113439283D01*
X142000000Y-113439283D01*
X142244643Y-113390620D01*
X142452041Y-113252041D01*
X142590620Y-113044643D01*
X142639283Y-112800000D01*
X142639283Y-110400000D01*
X142590620Y-110155357D01*
X142452041Y-109947959D01*
X142244643Y-109809380D01*
X142000000Y-109760717D01*
X139600000Y-109760717D01*
X139355357Y-109809380D01*
X139147959Y-109947959D01*
X139009380Y-110155357D01*
X138960717Y-110400000D01*
X101627000Y-110400000D01*
X101627000Y-109627000D01*
X143373000Y-109627000D01*
X143373000Y-123000000D01*
X143382667Y-123048601D01*
X143410197Y-123089803D01*
X143451399Y-123117333D01*
X143500000Y-123127000D01*
X157000000Y-123127000D01*
X157048601Y-123117333D01*
X157089803Y-123089803D01*
X157108902Y-123065341D01*
X158571907Y-120627000D01*
X169298000Y-120627000D01*
X169298000Y-124222956D01*
X169159598Y-123888824D01*
X168111176Y-122840402D01*
X166741346Y-122273000D01*
X165258654Y-122273000D01*
X163888824Y-122840402D01*
X162840402Y-123888824D01*
X162273000Y-125258654D01*
X162273000Y-126741346D01*
X162840402Y-128111176D01*
X163888824Y-129159598D01*
X164222956Y-129298000D01*
X85777044Y-129298000D01*
X86111176Y-129159598D01*
X87159598Y-128111176D01*
X87727000Y-126741346D01*
X87727000Y-125258654D01*
X87159598Y-123888824D01*
X86111176Y-122840402D01*
X84741346Y-122273000D01*
X83258654Y-122273000D01*
X81888824Y-122840402D01*
X80840402Y-123888824D01*
X80702000Y-124222956D01*
X80702000Y-109627000D01*
X91373000Y-109627000D01*
X91373000Y-115500000D01*
X91373000Y-115500000D01*
G37*
X91373000Y-115500000D02*
X91420728Y-115739943D01*
X91556644Y-115943356D01*
X91760057Y-116079272D01*
X92000000Y-116127000D01*
X101000000Y-116127000D01*
X101239943Y-116079272D01*
X101443356Y-115943356D01*
X101579272Y-115739943D01*
X101627000Y-115500000D01*
X101627000Y-110400000D01*
X138960717Y-110400000D01*
X138960717Y-112800000D01*
X139009380Y-113044643D01*
X139147959Y-113252041D01*
X139355357Y-113390620D01*
X139600000Y-113439283D01*
X142000000Y-113439283D01*
X142244643Y-113390620D01*
X142452041Y-113252041D01*
X142590620Y-113044643D01*
X142639283Y-112800000D01*
X142639283Y-110400000D01*
X142590620Y-110155357D01*
X142452041Y-109947959D01*
X142244643Y-109809380D01*
X142000000Y-109760717D01*
X139600000Y-109760717D01*
X139355357Y-109809380D01*
X139147959Y-109947959D01*
X139009380Y-110155357D01*
X138960717Y-110400000D01*
X101627000Y-110400000D01*
X101627000Y-109627000D01*
X143373000Y-109627000D01*
X143373000Y-123000000D01*
X143382667Y-123048601D01*
X143410197Y-123089803D01*
X143451399Y-123117333D01*
X143500000Y-123127000D01*
X157000000Y-123127000D01*
X157048601Y-123117333D01*
X157089803Y-123089803D01*
X157108902Y-123065341D01*
X158571907Y-120627000D01*
X169298000Y-120627000D01*
X169298000Y-124222956D01*
X169159598Y-123888824D01*
X168111176Y-122840402D01*
X166741346Y-122273000D01*
X165258654Y-122273000D01*
X163888824Y-122840402D01*
X162840402Y-123888824D01*
X162273000Y-125258654D01*
X162273000Y-126741346D01*
X162840402Y-128111176D01*
X163888824Y-129159598D01*
X164222956Y-129298000D01*
X85777044Y-129298000D01*
X86111176Y-129159598D01*
X87159598Y-128111176D01*
X87727000Y-126741346D01*
X87727000Y-125258654D01*
X87159598Y-123888824D01*
X86111176Y-122840402D01*
X84741346Y-122273000D01*
X83258654Y-122273000D01*
X81888824Y-122840402D01*
X80840402Y-123888824D01*
X80702000Y-124222956D01*
X80702000Y-109627000D01*
X91373000Y-109627000D01*
X91373000Y-115500000D01*
G04 #@! TD*
M02*
