G04 #@! TF.GenerationSoftware,KiCad,Pcbnew,(5.0.0-3-g5ebb6b6)*
G04 #@! TF.CreationDate,2018-08-10T20:06:04-07:00*
G04 #@! TF.ProjectId,juma-adj-cx,6A756D612D61646A2D63782E6B696361,rev?*
G04 #@! TF.SameCoordinates,Original*
G04 #@! TF.FileFunction,Copper,L2,Bot,Signal*
G04 #@! TF.FilePolarity,Positive*
%FSLAX46Y46*%
G04 Gerber Fmt 4.6, Leading zero omitted, Abs format (unit mm)*
G04 Created by KiCad (PCBNEW (5.0.0-3-g5ebb6b6)) date Friday, August 10, 2018 at 08:06:04 PM*
%MOMM*%
%LPD*%
G01*
G04 APERTURE LIST*
G04 #@! TA.AperFunction,ComponentPad*
%ADD10R,2.400000X2.400000*%
G04 #@! TD*
G04 #@! TA.AperFunction,ComponentPad*
%ADD11C,2.400000*%
G04 #@! TD*
G04 #@! TA.AperFunction,ComponentPad*
%ADD12R,4.000000X4.000000*%
G04 #@! TD*
G04 #@! TA.AperFunction,ComponentPad*
%ADD13C,4.000000*%
G04 #@! TD*
G04 #@! TA.AperFunction,ComponentPad*
%ADD14O,8.500000X3.400000*%
G04 #@! TD*
G04 #@! TA.AperFunction,ComponentPad*
%ADD15C,2.000000*%
G04 #@! TD*
G04 #@! TA.AperFunction,ComponentPad*
%ADD16O,2.500000X4.500000*%
G04 #@! TD*
G04 #@! TA.AperFunction,ComponentPad*
%ADD17O,1.800000X2.200000*%
G04 #@! TD*
G04 #@! TA.AperFunction,ComponentPad*
%ADD18R,1.346200X1.346200*%
G04 #@! TD*
G04 #@! TA.AperFunction,ComponentPad*
%ADD19C,1.346200*%
G04 #@! TD*
G04 #@! TA.AperFunction,ComponentPad*
%ADD20O,2.400000X2.400000*%
G04 #@! TD*
G04 #@! TA.AperFunction,ComponentPad*
%ADD21C,1.600000*%
G04 #@! TD*
G04 #@! TA.AperFunction,ComponentPad*
%ADD22O,1.600000X1.600000*%
G04 #@! TD*
G04 #@! TA.AperFunction,ViaPad*
%ADD23C,0.800000*%
G04 #@! TD*
G04 #@! TA.AperFunction,Conductor*
%ADD24C,1.000000*%
G04 #@! TD*
G04 #@! TA.AperFunction,Conductor*
%ADD25C,0.254000*%
G04 #@! TD*
G04 APERTURE END LIST*
D10*
G04 #@! TO.P,C3,1*
G04 #@! TO.N,Net-(C3-Pad1)*
X140800000Y-111600000D03*
D11*
G04 #@! TO.P,C3,2*
G04 #@! TO.N,Net-(C1-Pad2)*
X145800000Y-111600000D03*
G04 #@! TD*
G04 #@! TO.P,C4,2*
G04 #@! TO.N,Net-(C1-Pad2)*
X155500000Y-120500000D03*
D10*
G04 #@! TO.P,C4,1*
G04 #@! TO.N,Net-(C4-Pad1)*
X150500000Y-120500000D03*
G04 #@! TD*
D12*
G04 #@! TO.P,C2,1*
G04 #@! TO.N,Net-(C1-Pad1)*
X119000000Y-105000000D03*
D13*
G04 #@! TO.P,C2,2*
G04 #@! TO.N,Net-(C1-Pad2)*
X119000000Y-115000000D03*
G04 #@! TD*
D14*
G04 #@! TO.P,J4,1*
G04 #@! TO.N,Net-(C1-Pad2)*
X164000000Y-114000000D03*
D15*
X161460000Y-114000000D03*
G04 #@! TD*
D14*
G04 #@! TO.P,J2,1*
G04 #@! TO.N,Net-(C1-Pad2)*
X86000000Y-114000000D03*
D15*
X83460000Y-114000000D03*
G04 #@! TD*
D14*
G04 #@! TO.P,J3,1*
G04 #@! TO.N,Net-(J3-Pad1)*
X164000000Y-105000000D03*
D15*
X161460000Y-105000000D03*
G04 #@! TD*
D14*
G04 #@! TO.P,J1,1*
G04 #@! TO.N,Net-(C1-Pad1)*
X86000000Y-105000000D03*
D15*
X83460000Y-105000000D03*
G04 #@! TD*
D16*
G04 #@! TO.P,Q2,1*
G04 #@! TO.N,Net-(Q1-Pad1)*
X154000000Y-92800000D03*
G04 #@! TO.P,Q2,2*
G04 #@! TO.N,Net-(C1-Pad1)*
X159450000Y-92800000D03*
G04 #@! TO.P,Q2,3*
G04 #@! TO.N,Net-(J3-Pad1)*
X164900000Y-92800000D03*
G04 #@! TD*
D11*
G04 #@! TO.P,C1,2*
G04 #@! TO.N,Net-(C1-Pad2)*
X96500000Y-127000000D03*
G04 #@! TO.P,C1,1*
G04 #@! TO.N,Net-(C1-Pad1)*
X96500000Y-112000000D03*
G04 #@! TD*
D17*
G04 #@! TO.P,Q1,1*
G04 #@! TO.N,Net-(Q1-Pad1)*
X140000000Y-91400000D03*
G04 #@! TO.P,Q1,2*
G04 #@! TO.N,Net-(C1-Pad1)*
X142540000Y-91400000D03*
G04 #@! TO.P,Q1,3*
G04 #@! TO.N,Net-(C4-Pad1)*
X145080000Y-91400000D03*
G04 #@! TD*
D18*
G04 #@! TO.P,RV1,1*
G04 #@! TO.N,Net-(C3-Pad1)*
X142460000Y-100923800D03*
D19*
G04 #@! TO.P,RV1,2*
G04 #@! TO.N,Net-(C4-Pad1)*
X145000000Y-98383800D03*
G04 #@! TO.P,RV1,3*
G04 #@! TO.N,Net-(R3-Pad1)*
X147540000Y-100923800D03*
G04 #@! TD*
D11*
G04 #@! TO.P,R1,1*
G04 #@! TO.N,Net-(C1-Pad1)*
X96500000Y-108000000D03*
D20*
G04 #@! TO.P,R1,2*
G04 #@! TO.N,Net-(C1-Pad2)*
X96500000Y-92760000D03*
G04 #@! TD*
D21*
G04 #@! TO.P,R2,1*
G04 #@! TO.N,Net-(C1-Pad1)*
X139000000Y-97000000D03*
D22*
G04 #@! TO.P,R2,2*
G04 #@! TO.N,Net-(C3-Pad1)*
X139000000Y-104620000D03*
G04 #@! TD*
G04 #@! TO.P,R3,2*
G04 #@! TO.N,Net-(C1-Pad2)*
X153200000Y-107620000D03*
D21*
G04 #@! TO.P,R3,1*
G04 #@! TO.N,Net-(R3-Pad1)*
X153200000Y-100000000D03*
G04 #@! TD*
G04 #@! TO.P,R4,1*
G04 #@! TO.N,Net-(Q1-Pad1)*
X156600000Y-100000000D03*
D22*
G04 #@! TO.P,R4,2*
G04 #@! TO.N,Net-(C1-Pad2)*
X156600000Y-107620000D03*
G04 #@! TD*
D23*
G04 #@! TO.N,Net-(C1-Pad2)*
X84000000Y-111000000D03*
X86000000Y-110000000D03*
X88000000Y-111000000D03*
X90000000Y-110000000D03*
X160000000Y-111000000D03*
X164000000Y-111000000D03*
X166000000Y-110000000D03*
X168000000Y-111000000D03*
X84000000Y-118000000D03*
X88000000Y-118000000D03*
X136000000Y-118000000D03*
X160000000Y-117000000D03*
X168000000Y-117000000D03*
X84000000Y-120000000D03*
X86000000Y-119000000D03*
X88000000Y-120000000D03*
X102000000Y-119000000D03*
X136000000Y-120000000D03*
X138000000Y-119000000D03*
X162000000Y-118000000D03*
X166000000Y-118000000D03*
X86000000Y-121000000D03*
X88000000Y-122000000D03*
X102000000Y-121000000D03*
X104000000Y-122000000D03*
X134000000Y-121000000D03*
X138000000Y-121000000D03*
X140000000Y-122000000D03*
X102000000Y-123000000D03*
X104000000Y-124000000D03*
X106000000Y-123000000D03*
X132000000Y-124000000D03*
X134000000Y-123000000D03*
X138000000Y-123000000D03*
X140000000Y-124000000D03*
X144000000Y-124000000D03*
X160000000Y-124000000D03*
X102000000Y-125000000D03*
X104000000Y-126000000D03*
X106000000Y-125000000D03*
X108000000Y-126000000D03*
X128000000Y-126000000D03*
X130000000Y-125000000D03*
X132000000Y-126000000D03*
X134000000Y-125000000D03*
X136000000Y-126000000D03*
X138000000Y-125000000D03*
X140000000Y-126000000D03*
X142000000Y-125000000D03*
X144000000Y-126000000D03*
X160000000Y-126000000D03*
X102000000Y-127000000D03*
X104000000Y-128000000D03*
X106000000Y-127000000D03*
X108000000Y-128000000D03*
X110000000Y-127000000D03*
X112000000Y-128000000D03*
X120400000Y-128000000D03*
X124000000Y-128000000D03*
X126000000Y-127000000D03*
X128000000Y-128000000D03*
X130000000Y-127000000D03*
X132000000Y-128000000D03*
X134000000Y-127000000D03*
X136000000Y-128000000D03*
X138000000Y-127000000D03*
X140000000Y-128000000D03*
X142000000Y-127000000D03*
X144000000Y-128000000D03*
X162000000Y-129000000D03*
X82000000Y-121000000D03*
X82000000Y-119000000D03*
X82000000Y-117000000D03*
X82000000Y-112000000D03*
X82000000Y-110000000D03*
X90000000Y-112000000D03*
X102000000Y-117000000D03*
X164000000Y-117000000D03*
X142000000Y-123000000D03*
X156000000Y-128000000D03*
X136000000Y-124000000D03*
X136000000Y-122000000D03*
X138000000Y-117000000D03*
X140000000Y-120000000D03*
X140000000Y-118000000D03*
X142000000Y-121000000D03*
X142000000Y-119000000D03*
X162000000Y-123000000D03*
X160000000Y-128000000D03*
X150000000Y-129000000D03*
X152000000Y-128000000D03*
X150000000Y-127000000D03*
X146000000Y-127000000D03*
X146000000Y-125000000D03*
X146000000Y-129000000D03*
X148000000Y-128000000D03*
X148000000Y-126000000D03*
X158000000Y-129000000D03*
X158000000Y-127000000D03*
X154000000Y-129000000D03*
X142000000Y-129000000D03*
X138000000Y-129000000D03*
X134000000Y-129000000D03*
X130000000Y-129000000D03*
X126000000Y-129000000D03*
X110000000Y-129000000D03*
X106000000Y-129000000D03*
X102000000Y-129000000D03*
X114000000Y-129000000D03*
X118000000Y-129000000D03*
X116000000Y-128000000D03*
X122000000Y-129000000D03*
X86000000Y-117000000D03*
X88000000Y-124000000D03*
X88000000Y-128000000D03*
X90000000Y-121000000D03*
X90000000Y-119000000D03*
X90000000Y-117000000D03*
X90000000Y-125000000D03*
X90000000Y-127000000D03*
X90000000Y-123000000D03*
X90000000Y-129000000D03*
X160000000Y-122000000D03*
X162000000Y-121000000D03*
X166000000Y-121000000D03*
X164000000Y-122000000D03*
X168000000Y-122000000D03*
X162000000Y-110000000D03*
X86000000Y-110000000D03*
G04 #@! TD*
D24*
G04 #@! TO.N,Net-(C4-Pad1)*
X145000000Y-98383800D02*
X145000000Y-102000000D01*
X150500000Y-107500000D02*
X150500000Y-120500000D01*
X145000000Y-102000000D02*
X150500000Y-107500000D01*
G04 #@! TO.N,Net-(Q1-Pad1)*
X154000000Y-97400000D02*
X156600000Y-100000000D01*
X154000000Y-92800000D02*
X154000000Y-97400000D01*
G04 #@! TO.N,Net-(R3-Pad1)*
X148463800Y-100000000D02*
X147540000Y-100923800D01*
X153200000Y-100000000D02*
X148463800Y-100000000D01*
G04 #@! TD*
D25*
G04 #@! TO.N,Net-(C1-Pad2)*
G36*
X136373000Y-113000000D02*
X136420728Y-113239943D01*
X136556644Y-113443356D01*
X136760057Y-113579272D01*
X137000000Y-113627000D01*
X143500000Y-113627000D01*
X143739943Y-113579272D01*
X143873000Y-113490366D01*
X143873000Y-118000000D01*
X143882667Y-118048601D01*
X143910197Y-118089803D01*
X148910197Y-123089803D01*
X148951399Y-123117333D01*
X149000000Y-123127000D01*
X156500000Y-123127000D01*
X156548601Y-123117333D01*
X156589803Y-123089803D01*
X156607696Y-123067310D01*
X159107696Y-119067310D01*
X159127000Y-119000000D01*
X159127000Y-114902596D01*
X159414110Y-114902596D01*
X159470101Y-115169555D01*
X160068381Y-115838202D01*
X160877000Y-116227000D01*
X163427000Y-116227000D01*
X163427000Y-114573000D01*
X164573000Y-114573000D01*
X164573000Y-116227000D01*
X167123000Y-116227000D01*
X167931619Y-115838202D01*
X168529899Y-115169555D01*
X168585890Y-114902596D01*
X168565377Y-114573000D01*
X164573000Y-114573000D01*
X163427000Y-114573000D01*
X159434623Y-114573000D01*
X159414110Y-114902596D01*
X159127000Y-114902596D01*
X159127000Y-113097404D01*
X159414110Y-113097404D01*
X159434623Y-113427000D01*
X163427000Y-113427000D01*
X163427000Y-111773000D01*
X164573000Y-111773000D01*
X164573000Y-113427000D01*
X168565377Y-113427000D01*
X168585890Y-113097404D01*
X168529899Y-112830445D01*
X167931619Y-112161798D01*
X167123000Y-111773000D01*
X164573000Y-111773000D01*
X163427000Y-111773000D01*
X160877000Y-111773000D01*
X160068381Y-112161798D01*
X159470101Y-112830445D01*
X159414110Y-113097404D01*
X159127000Y-113097404D01*
X159127000Y-109627000D01*
X169298000Y-109627000D01*
X169298000Y-124222956D01*
X169159598Y-123888824D01*
X168111176Y-122840402D01*
X166741346Y-122273000D01*
X165258654Y-122273000D01*
X163888824Y-122840402D01*
X162840402Y-123888824D01*
X162273000Y-125258654D01*
X162273000Y-126741346D01*
X162840402Y-128111176D01*
X163888824Y-129159598D01*
X164222956Y-129298000D01*
X85777044Y-129298000D01*
X86111176Y-129159598D01*
X86973599Y-128297175D01*
X95382430Y-128297175D01*
X95505565Y-128584788D01*
X96187734Y-128844707D01*
X96917443Y-128823786D01*
X97494435Y-128584788D01*
X97617570Y-128297175D01*
X96500000Y-127179605D01*
X95382430Y-128297175D01*
X86973599Y-128297175D01*
X87159598Y-128111176D01*
X87727000Y-126741346D01*
X87727000Y-126687734D01*
X94655293Y-126687734D01*
X94676214Y-127417443D01*
X94915212Y-127994435D01*
X95202825Y-128117570D01*
X96320395Y-127000000D01*
X96679605Y-127000000D01*
X97797175Y-128117570D01*
X98084788Y-127994435D01*
X98344707Y-127312266D01*
X98323786Y-126582557D01*
X98084788Y-126005565D01*
X97797175Y-125882430D01*
X96679605Y-127000000D01*
X96320395Y-127000000D01*
X95202825Y-125882430D01*
X94915212Y-126005565D01*
X94655293Y-126687734D01*
X87727000Y-126687734D01*
X87727000Y-125702825D01*
X95382430Y-125702825D01*
X96500000Y-126820395D01*
X97617570Y-125702825D01*
X97494435Y-125415212D01*
X96812266Y-125155293D01*
X96082557Y-125176214D01*
X95505565Y-125415212D01*
X95382430Y-125702825D01*
X87727000Y-125702825D01*
X87727000Y-125258654D01*
X87159598Y-123888824D01*
X86111176Y-122840402D01*
X84741346Y-122273000D01*
X83258654Y-122273000D01*
X81888824Y-122840402D01*
X80840402Y-123888824D01*
X80702000Y-124222956D01*
X80702000Y-116875022D01*
X117304584Y-116875022D01*
X117525353Y-117245743D01*
X118497012Y-117639119D01*
X119545247Y-117630713D01*
X120474647Y-117245743D01*
X120695416Y-116875022D01*
X119000000Y-115179605D01*
X117304584Y-116875022D01*
X80702000Y-116875022D01*
X80702000Y-114902596D01*
X81414110Y-114902596D01*
X81470101Y-115169555D01*
X82068381Y-115838202D01*
X82877000Y-116227000D01*
X85427000Y-116227000D01*
X85427000Y-114573000D01*
X86573000Y-114573000D01*
X86573000Y-116227000D01*
X89123000Y-116227000D01*
X89931619Y-115838202D01*
X90529899Y-115169555D01*
X90585890Y-114902596D01*
X90565377Y-114573000D01*
X86573000Y-114573000D01*
X85427000Y-114573000D01*
X81434623Y-114573000D01*
X81414110Y-114902596D01*
X80702000Y-114902596D01*
X80702000Y-114497012D01*
X116360881Y-114497012D01*
X116369287Y-115545247D01*
X116754257Y-116474647D01*
X117124978Y-116695416D01*
X118820395Y-115000000D01*
X119179605Y-115000000D01*
X120875022Y-116695416D01*
X121245743Y-116474647D01*
X121639119Y-115502988D01*
X121630713Y-114454753D01*
X121245743Y-113525353D01*
X120875022Y-113304584D01*
X119179605Y-115000000D01*
X118820395Y-115000000D01*
X117124978Y-113304584D01*
X116754257Y-113525353D01*
X116360881Y-114497012D01*
X80702000Y-114497012D01*
X80702000Y-113097404D01*
X81414110Y-113097404D01*
X81434623Y-113427000D01*
X85427000Y-113427000D01*
X85427000Y-111773000D01*
X86573000Y-111773000D01*
X86573000Y-113427000D01*
X90565377Y-113427000D01*
X90585890Y-113097404D01*
X90529899Y-112830445D01*
X89931619Y-112161798D01*
X89123000Y-111773000D01*
X86573000Y-111773000D01*
X85427000Y-111773000D01*
X82877000Y-111773000D01*
X82068381Y-112161798D01*
X81470101Y-112830445D01*
X81414110Y-113097404D01*
X80702000Y-113097404D01*
X80702000Y-111636587D01*
X94673000Y-111636587D01*
X94673000Y-112363413D01*
X94951144Y-113034912D01*
X95465088Y-113548856D01*
X96136587Y-113827000D01*
X96863413Y-113827000D01*
X97534912Y-113548856D01*
X97958790Y-113124978D01*
X117304584Y-113124978D01*
X119000000Y-114820395D01*
X120695416Y-113124978D01*
X120474647Y-112754257D01*
X119502988Y-112360881D01*
X118454753Y-112369287D01*
X117525353Y-112754257D01*
X117304584Y-113124978D01*
X97958790Y-113124978D01*
X98048856Y-113034912D01*
X98327000Y-112363413D01*
X98327000Y-111636587D01*
X98048856Y-110965088D01*
X97534912Y-110451144D01*
X96863413Y-110173000D01*
X96136587Y-110173000D01*
X95465088Y-110451144D01*
X94951144Y-110965088D01*
X94673000Y-111636587D01*
X80702000Y-111636587D01*
X80702000Y-107636587D01*
X94673000Y-107636587D01*
X94673000Y-108363413D01*
X94951144Y-109034912D01*
X95465088Y-109548856D01*
X96136587Y-109827000D01*
X96863413Y-109827000D01*
X97534912Y-109548856D01*
X98048856Y-109034912D01*
X98327000Y-108363413D01*
X98327000Y-107636587D01*
X98048856Y-106965088D01*
X97534912Y-106451144D01*
X96863413Y-106173000D01*
X96136587Y-106173000D01*
X95465088Y-106451144D01*
X94951144Y-106965088D01*
X94673000Y-107636587D01*
X80702000Y-107636587D01*
X80702000Y-105000000D01*
X81077412Y-105000000D01*
X81258015Y-105907950D01*
X81772327Y-106677673D01*
X82542050Y-107191985D01*
X83220814Y-107327000D01*
X88779186Y-107327000D01*
X89457950Y-107191985D01*
X90227673Y-106677673D01*
X90741985Y-105907950D01*
X90922588Y-105000000D01*
X90741985Y-104092050D01*
X90227673Y-103322327D01*
X89745277Y-103000000D01*
X116360717Y-103000000D01*
X116360717Y-107000000D01*
X116409380Y-107244643D01*
X116547959Y-107452041D01*
X116755357Y-107590620D01*
X117000000Y-107639283D01*
X121000000Y-107639283D01*
X121244643Y-107590620D01*
X121452041Y-107452041D01*
X121590620Y-107244643D01*
X121639283Y-107000000D01*
X121639283Y-103000000D01*
X121590620Y-102755357D01*
X121452041Y-102547959D01*
X121244643Y-102409380D01*
X121000000Y-102360717D01*
X117000000Y-102360717D01*
X116755357Y-102409380D01*
X116547959Y-102547959D01*
X116409380Y-102755357D01*
X116360717Y-103000000D01*
X89745277Y-103000000D01*
X89457950Y-102808015D01*
X88779186Y-102673000D01*
X83220814Y-102673000D01*
X82542050Y-102808015D01*
X81772327Y-103322327D01*
X81258015Y-104092050D01*
X81077412Y-105000000D01*
X80702000Y-105000000D01*
X80702000Y-95777044D01*
X80840402Y-96111176D01*
X81888824Y-97159598D01*
X83258654Y-97727000D01*
X84741346Y-97727000D01*
X86111176Y-97159598D01*
X87159598Y-96111176D01*
X87727000Y-94741346D01*
X87727000Y-93258654D01*
X87691027Y-93171807D01*
X94711797Y-93171807D01*
X95005508Y-93824776D01*
X95526742Y-94315642D01*
X96088195Y-94548195D01*
X96373000Y-94431432D01*
X96373000Y-92887000D01*
X96627000Y-92887000D01*
X96627000Y-94431432D01*
X96911805Y-94548195D01*
X97473258Y-94315642D01*
X97994492Y-93824776D01*
X98288203Y-93171807D01*
X98171858Y-92887000D01*
X96627000Y-92887000D01*
X96373000Y-92887000D01*
X94828142Y-92887000D01*
X94711797Y-93171807D01*
X87691027Y-93171807D01*
X87349875Y-92348193D01*
X94711797Y-92348193D01*
X94828142Y-92633000D01*
X96373000Y-92633000D01*
X96373000Y-91088568D01*
X96627000Y-91088568D01*
X96627000Y-92633000D01*
X98171858Y-92633000D01*
X98288203Y-92348193D01*
X97994492Y-91695224D01*
X97473258Y-91204358D01*
X96911805Y-90971805D01*
X96627000Y-91088568D01*
X96373000Y-91088568D01*
X96088195Y-90971805D01*
X95526742Y-91204358D01*
X95005508Y-91695224D01*
X94711797Y-92348193D01*
X87349875Y-92348193D01*
X87159598Y-91888824D01*
X86111176Y-90840402D01*
X85777044Y-90702000D01*
X136373000Y-90702000D01*
X136373000Y-113000000D01*
X136373000Y-113000000D01*
G37*
X136373000Y-113000000D02*
X136420728Y-113239943D01*
X136556644Y-113443356D01*
X136760057Y-113579272D01*
X137000000Y-113627000D01*
X143500000Y-113627000D01*
X143739943Y-113579272D01*
X143873000Y-113490366D01*
X143873000Y-118000000D01*
X143882667Y-118048601D01*
X143910197Y-118089803D01*
X148910197Y-123089803D01*
X148951399Y-123117333D01*
X149000000Y-123127000D01*
X156500000Y-123127000D01*
X156548601Y-123117333D01*
X156589803Y-123089803D01*
X156607696Y-123067310D01*
X159107696Y-119067310D01*
X159127000Y-119000000D01*
X159127000Y-114902596D01*
X159414110Y-114902596D01*
X159470101Y-115169555D01*
X160068381Y-115838202D01*
X160877000Y-116227000D01*
X163427000Y-116227000D01*
X163427000Y-114573000D01*
X164573000Y-114573000D01*
X164573000Y-116227000D01*
X167123000Y-116227000D01*
X167931619Y-115838202D01*
X168529899Y-115169555D01*
X168585890Y-114902596D01*
X168565377Y-114573000D01*
X164573000Y-114573000D01*
X163427000Y-114573000D01*
X159434623Y-114573000D01*
X159414110Y-114902596D01*
X159127000Y-114902596D01*
X159127000Y-113097404D01*
X159414110Y-113097404D01*
X159434623Y-113427000D01*
X163427000Y-113427000D01*
X163427000Y-111773000D01*
X164573000Y-111773000D01*
X164573000Y-113427000D01*
X168565377Y-113427000D01*
X168585890Y-113097404D01*
X168529899Y-112830445D01*
X167931619Y-112161798D01*
X167123000Y-111773000D01*
X164573000Y-111773000D01*
X163427000Y-111773000D01*
X160877000Y-111773000D01*
X160068381Y-112161798D01*
X159470101Y-112830445D01*
X159414110Y-113097404D01*
X159127000Y-113097404D01*
X159127000Y-109627000D01*
X169298000Y-109627000D01*
X169298000Y-124222956D01*
X169159598Y-123888824D01*
X168111176Y-122840402D01*
X166741346Y-122273000D01*
X165258654Y-122273000D01*
X163888824Y-122840402D01*
X162840402Y-123888824D01*
X162273000Y-125258654D01*
X162273000Y-126741346D01*
X162840402Y-128111176D01*
X163888824Y-129159598D01*
X164222956Y-129298000D01*
X85777044Y-129298000D01*
X86111176Y-129159598D01*
X86973599Y-128297175D01*
X95382430Y-128297175D01*
X95505565Y-128584788D01*
X96187734Y-128844707D01*
X96917443Y-128823786D01*
X97494435Y-128584788D01*
X97617570Y-128297175D01*
X96500000Y-127179605D01*
X95382430Y-128297175D01*
X86973599Y-128297175D01*
X87159598Y-128111176D01*
X87727000Y-126741346D01*
X87727000Y-126687734D01*
X94655293Y-126687734D01*
X94676214Y-127417443D01*
X94915212Y-127994435D01*
X95202825Y-128117570D01*
X96320395Y-127000000D01*
X96679605Y-127000000D01*
X97797175Y-128117570D01*
X98084788Y-127994435D01*
X98344707Y-127312266D01*
X98323786Y-126582557D01*
X98084788Y-126005565D01*
X97797175Y-125882430D01*
X96679605Y-127000000D01*
X96320395Y-127000000D01*
X95202825Y-125882430D01*
X94915212Y-126005565D01*
X94655293Y-126687734D01*
X87727000Y-126687734D01*
X87727000Y-125702825D01*
X95382430Y-125702825D01*
X96500000Y-126820395D01*
X97617570Y-125702825D01*
X97494435Y-125415212D01*
X96812266Y-125155293D01*
X96082557Y-125176214D01*
X95505565Y-125415212D01*
X95382430Y-125702825D01*
X87727000Y-125702825D01*
X87727000Y-125258654D01*
X87159598Y-123888824D01*
X86111176Y-122840402D01*
X84741346Y-122273000D01*
X83258654Y-122273000D01*
X81888824Y-122840402D01*
X80840402Y-123888824D01*
X80702000Y-124222956D01*
X80702000Y-116875022D01*
X117304584Y-116875022D01*
X117525353Y-117245743D01*
X118497012Y-117639119D01*
X119545247Y-117630713D01*
X120474647Y-117245743D01*
X120695416Y-116875022D01*
X119000000Y-115179605D01*
X117304584Y-116875022D01*
X80702000Y-116875022D01*
X80702000Y-114902596D01*
X81414110Y-114902596D01*
X81470101Y-115169555D01*
X82068381Y-115838202D01*
X82877000Y-116227000D01*
X85427000Y-116227000D01*
X85427000Y-114573000D01*
X86573000Y-114573000D01*
X86573000Y-116227000D01*
X89123000Y-116227000D01*
X89931619Y-115838202D01*
X90529899Y-115169555D01*
X90585890Y-114902596D01*
X90565377Y-114573000D01*
X86573000Y-114573000D01*
X85427000Y-114573000D01*
X81434623Y-114573000D01*
X81414110Y-114902596D01*
X80702000Y-114902596D01*
X80702000Y-114497012D01*
X116360881Y-114497012D01*
X116369287Y-115545247D01*
X116754257Y-116474647D01*
X117124978Y-116695416D01*
X118820395Y-115000000D01*
X119179605Y-115000000D01*
X120875022Y-116695416D01*
X121245743Y-116474647D01*
X121639119Y-115502988D01*
X121630713Y-114454753D01*
X121245743Y-113525353D01*
X120875022Y-113304584D01*
X119179605Y-115000000D01*
X118820395Y-115000000D01*
X117124978Y-113304584D01*
X116754257Y-113525353D01*
X116360881Y-114497012D01*
X80702000Y-114497012D01*
X80702000Y-113097404D01*
X81414110Y-113097404D01*
X81434623Y-113427000D01*
X85427000Y-113427000D01*
X85427000Y-111773000D01*
X86573000Y-111773000D01*
X86573000Y-113427000D01*
X90565377Y-113427000D01*
X90585890Y-113097404D01*
X90529899Y-112830445D01*
X89931619Y-112161798D01*
X89123000Y-111773000D01*
X86573000Y-111773000D01*
X85427000Y-111773000D01*
X82877000Y-111773000D01*
X82068381Y-112161798D01*
X81470101Y-112830445D01*
X81414110Y-113097404D01*
X80702000Y-113097404D01*
X80702000Y-111636587D01*
X94673000Y-111636587D01*
X94673000Y-112363413D01*
X94951144Y-113034912D01*
X95465088Y-113548856D01*
X96136587Y-113827000D01*
X96863413Y-113827000D01*
X97534912Y-113548856D01*
X97958790Y-113124978D01*
X117304584Y-113124978D01*
X119000000Y-114820395D01*
X120695416Y-113124978D01*
X120474647Y-112754257D01*
X119502988Y-112360881D01*
X118454753Y-112369287D01*
X117525353Y-112754257D01*
X117304584Y-113124978D01*
X97958790Y-113124978D01*
X98048856Y-113034912D01*
X98327000Y-112363413D01*
X98327000Y-111636587D01*
X98048856Y-110965088D01*
X97534912Y-110451144D01*
X96863413Y-110173000D01*
X96136587Y-110173000D01*
X95465088Y-110451144D01*
X94951144Y-110965088D01*
X94673000Y-111636587D01*
X80702000Y-111636587D01*
X80702000Y-107636587D01*
X94673000Y-107636587D01*
X94673000Y-108363413D01*
X94951144Y-109034912D01*
X95465088Y-109548856D01*
X96136587Y-109827000D01*
X96863413Y-109827000D01*
X97534912Y-109548856D01*
X98048856Y-109034912D01*
X98327000Y-108363413D01*
X98327000Y-107636587D01*
X98048856Y-106965088D01*
X97534912Y-106451144D01*
X96863413Y-106173000D01*
X96136587Y-106173000D01*
X95465088Y-106451144D01*
X94951144Y-106965088D01*
X94673000Y-107636587D01*
X80702000Y-107636587D01*
X80702000Y-105000000D01*
X81077412Y-105000000D01*
X81258015Y-105907950D01*
X81772327Y-106677673D01*
X82542050Y-107191985D01*
X83220814Y-107327000D01*
X88779186Y-107327000D01*
X89457950Y-107191985D01*
X90227673Y-106677673D01*
X90741985Y-105907950D01*
X90922588Y-105000000D01*
X90741985Y-104092050D01*
X90227673Y-103322327D01*
X89745277Y-103000000D01*
X116360717Y-103000000D01*
X116360717Y-107000000D01*
X116409380Y-107244643D01*
X116547959Y-107452041D01*
X116755357Y-107590620D01*
X117000000Y-107639283D01*
X121000000Y-107639283D01*
X121244643Y-107590620D01*
X121452041Y-107452041D01*
X121590620Y-107244643D01*
X121639283Y-107000000D01*
X121639283Y-103000000D01*
X121590620Y-102755357D01*
X121452041Y-102547959D01*
X121244643Y-102409380D01*
X121000000Y-102360717D01*
X117000000Y-102360717D01*
X116755357Y-102409380D01*
X116547959Y-102547959D01*
X116409380Y-102755357D01*
X116360717Y-103000000D01*
X89745277Y-103000000D01*
X89457950Y-102808015D01*
X88779186Y-102673000D01*
X83220814Y-102673000D01*
X82542050Y-102808015D01*
X81772327Y-103322327D01*
X81258015Y-104092050D01*
X81077412Y-105000000D01*
X80702000Y-105000000D01*
X80702000Y-95777044D01*
X80840402Y-96111176D01*
X81888824Y-97159598D01*
X83258654Y-97727000D01*
X84741346Y-97727000D01*
X86111176Y-97159598D01*
X87159598Y-96111176D01*
X87727000Y-94741346D01*
X87727000Y-93258654D01*
X87691027Y-93171807D01*
X94711797Y-93171807D01*
X95005508Y-93824776D01*
X95526742Y-94315642D01*
X96088195Y-94548195D01*
X96373000Y-94431432D01*
X96373000Y-92887000D01*
X96627000Y-92887000D01*
X96627000Y-94431432D01*
X96911805Y-94548195D01*
X97473258Y-94315642D01*
X97994492Y-93824776D01*
X98288203Y-93171807D01*
X98171858Y-92887000D01*
X96627000Y-92887000D01*
X96373000Y-92887000D01*
X94828142Y-92887000D01*
X94711797Y-93171807D01*
X87691027Y-93171807D01*
X87349875Y-92348193D01*
X94711797Y-92348193D01*
X94828142Y-92633000D01*
X96373000Y-92633000D01*
X96373000Y-91088568D01*
X96627000Y-91088568D01*
X96627000Y-92633000D01*
X98171858Y-92633000D01*
X98288203Y-92348193D01*
X97994492Y-91695224D01*
X97473258Y-91204358D01*
X96911805Y-90971805D01*
X96627000Y-91088568D01*
X96373000Y-91088568D01*
X96088195Y-90971805D01*
X95526742Y-91204358D01*
X95005508Y-91695224D01*
X94711797Y-92348193D01*
X87349875Y-92348193D01*
X87159598Y-91888824D01*
X86111176Y-90840402D01*
X85777044Y-90702000D01*
X136373000Y-90702000D01*
X136373000Y-113000000D01*
G04 #@! TO.N,Net-(Q1-Pad1)*
G36*
X141101598Y-90604195D02*
X141013000Y-91049608D01*
X141013000Y-91750393D01*
X141101598Y-92195806D01*
X141439095Y-92700905D01*
X141944195Y-93038402D01*
X142540000Y-93156915D01*
X143135806Y-93038402D01*
X143640905Y-92700905D01*
X143810000Y-92447837D01*
X143979095Y-92700905D01*
X144484195Y-93038402D01*
X145080000Y-93156915D01*
X145675806Y-93038402D01*
X146180905Y-92700905D01*
X146518402Y-92195805D01*
X146607000Y-91750392D01*
X146607000Y-91049607D01*
X146518402Y-90604194D01*
X146419382Y-90456000D01*
X155456730Y-90456000D01*
X155473000Y-90516721D01*
X155473000Y-94683279D01*
X155419148Y-94884259D01*
X155284259Y-95019148D01*
X155083279Y-95073000D01*
X138516721Y-95073000D01*
X138315741Y-95019148D01*
X138180852Y-94884259D01*
X138127000Y-94683279D01*
X138127000Y-90516721D01*
X138143270Y-90456000D01*
X141200619Y-90456000D01*
X141101598Y-90604195D01*
X141101598Y-90604195D01*
G37*
X141101598Y-90604195D02*
X141013000Y-91049608D01*
X141013000Y-91750393D01*
X141101598Y-92195806D01*
X141439095Y-92700905D01*
X141944195Y-93038402D01*
X142540000Y-93156915D01*
X143135806Y-93038402D01*
X143640905Y-92700905D01*
X143810000Y-92447837D01*
X143979095Y-92700905D01*
X144484195Y-93038402D01*
X145080000Y-93156915D01*
X145675806Y-93038402D01*
X146180905Y-92700905D01*
X146518402Y-92195805D01*
X146607000Y-91750392D01*
X146607000Y-91049607D01*
X146518402Y-90604194D01*
X146419382Y-90456000D01*
X155456730Y-90456000D01*
X155473000Y-90516721D01*
X155473000Y-94683279D01*
X155419148Y-94884259D01*
X155284259Y-95019148D01*
X155083279Y-95073000D01*
X138516721Y-95073000D01*
X138315741Y-95019148D01*
X138180852Y-94884259D01*
X138127000Y-94683279D01*
X138127000Y-90516721D01*
X138143270Y-90456000D01*
X141200619Y-90456000D01*
X141101598Y-90604195D01*
G04 #@! TO.N,Net-(C3-Pad1)*
G36*
X143373000Y-112873000D02*
X137127000Y-112873000D01*
X137127000Y-99727000D01*
X143373000Y-99727000D01*
X143373000Y-112873000D01*
X143373000Y-112873000D01*
G37*
X143373000Y-112873000D02*
X137127000Y-112873000D01*
X137127000Y-99727000D01*
X143373000Y-99727000D01*
X143373000Y-112873000D01*
G04 #@! TD*
M02*
