M48
;DRILL file {KiCad (5.0.0-3-g5ebb6b6)} date Friday, August 10, 2018 at 08:06:18 PM
;FORMAT={-:-/ absolute / inch / decimal}
FMAT,2
INCH,TZ
T1C0.0157
T2C0.0315
T3C0.0330
T4C0.0394
T5C0.0472
T6C0.0551
T7C0.0591
T8C0.0787
T9C0.1260
%
G90
G05
M72
T1
X3.2283Y-4.3307
X3.2283Y-4.4094
X3.2283Y-4.6063
X3.2283Y-4.685
X3.2283Y-4.7638
X3.3071Y-4.3701
X3.3071Y-4.6457
X3.3071Y-4.7244
X3.3858Y-4.3307
X3.3858Y-4.3307
X3.3858Y-4.6063
X3.3858Y-4.685
X3.3858Y-4.7638
X3.4646Y-4.3701
X3.4646Y-4.6457
X3.4646Y-4.7244
X3.4646Y-4.8031
X3.4646Y-4.8819
X3.4646Y-5.0394
X3.5433Y-4.3307
X3.5433Y-4.4094
X3.5433Y-4.6063
X3.5433Y-4.685
X3.5433Y-4.7638
X3.5433Y-4.8425
X3.5433Y-4.9213
X3.5433Y-5.
X3.5433Y-5.0787
X4.0157Y-4.6063
X4.0157Y-4.685
X4.0157Y-4.7638
X4.0157Y-4.8425
X4.0157Y-4.9213
X4.0157Y-5.
X4.0157Y-5.0787
X4.0945Y-4.8031
X4.0945Y-4.8819
X4.0945Y-4.9606
X4.0945Y-5.0394
X4.1732Y-4.8425
X4.1732Y-4.9213
X4.1732Y-5.
X4.1732Y-5.0787
X4.252Y-4.9606
X4.252Y-5.0394
X4.3307Y-5.
X4.3307Y-5.0787
X4.4094Y-5.0394
X4.4882Y-5.0787
X4.5669Y-5.0394
X4.6457Y-5.0787
X4.7402Y-5.0394
X4.8031Y-5.0787
X4.8819Y-5.0394
X4.9606Y-5.
X4.9606Y-5.0787
X5.0394Y-4.9606
X5.0394Y-5.0394
X5.1181Y-4.9213
X5.1181Y-5.
X5.1181Y-5.0787
X5.1969Y-4.8819
X5.1969Y-4.9606
X5.1969Y-5.0394
X5.2756Y-4.7638
X5.2756Y-4.8425
X5.2756Y-4.9213
X5.2756Y-5.
X5.2756Y-5.0787
X5.3543Y-4.6457
X5.3543Y-4.7244
X5.3543Y-4.8031
X5.3543Y-4.8819
X5.3543Y-4.9606
X5.3543Y-5.0394
X5.4331Y-4.6063
X5.4331Y-4.685
X5.4331Y-4.7638
X5.4331Y-4.8425
X5.4331Y-4.9213
X5.4331Y-5.
X5.4331Y-5.0787
X5.5118Y-4.6457
X5.5118Y-4.7244
X5.5118Y-4.8031
X5.5118Y-4.8819
X5.5118Y-4.9606
X5.5118Y-5.0394
X5.5906Y-4.685
X5.5906Y-4.7638
X5.5906Y-4.8425
X5.5906Y-4.9213
X5.5906Y-5.
X5.5906Y-5.0787
X5.6693Y-4.8819
X5.6693Y-4.9606
X5.6693Y-5.0394
X5.748Y-4.9213
X5.748Y-5.
X5.748Y-5.0787
X5.8268Y-4.9606
X5.8268Y-5.0394
X5.9055Y-5.
X5.9055Y-5.0787
X5.9843Y-5.0394
X6.063Y-5.0787
X6.1417Y-5.0394
X6.2205Y-5.
X6.2205Y-5.0787
X6.2992Y-4.3701
X6.2992Y-4.6063
X6.2992Y-4.8031
X6.2992Y-4.8819
X6.2992Y-4.9606
X6.2992Y-5.0394
X6.378Y-4.3307
X6.378Y-4.6457
X6.378Y-4.7638
X6.378Y-4.8425
X6.378Y-5.0787
X6.4567Y-4.3701
X6.4567Y-4.6063
X6.4567Y-4.8031
X6.5354Y-4.3307
X6.5354Y-4.6457
X6.5354Y-4.7638
X6.6142Y-4.3701
X6.6142Y-4.6063
X6.6142Y-4.8031
T2
X6.0315Y-3.937
X6.0315Y-4.237
X5.4724Y-3.8189
X5.4724Y-4.1189
X6.1654Y-3.937
X6.1654Y-4.237
T3
X5.6087Y-3.9734
X5.7087Y-3.8734
X5.8087Y-3.9734
T4
X5.5118Y-3.5866
X5.6118Y-3.5866
X5.7118Y-3.5866
T5
X5.5433Y-4.3937
X5.7402Y-4.3937
X3.7992Y-4.4094
X3.7992Y-5.
X3.7992Y-3.652
X3.7992Y-4.252
X5.9252Y-4.7441
X6.122Y-4.7441
T6
X3.2858Y-4.4882
X3.4858Y-4.4882
X6.3567Y-4.4882
X6.5567Y-4.4882
X3.2858Y-4.1339
X3.4858Y-4.1339
X6.3567Y-4.1339
X6.5567Y-4.1339
T7
X6.063Y-3.6535
X6.2776Y-3.6535
X6.4921Y-3.6535
T8
X4.685Y-4.1339
X4.685Y-4.5276
T9
X3.3071Y-4.9606
X6.5354Y-4.9606
X3.3071Y-3.7008
T0
M30
